<svg width="65" height="87" viewBox="0 0 65 87" fill="none" xmlns="http://www.w3.org/2000/svg">
<g id="Group 1000001607">
<g id="Vector" opacity="0.16" filter="url(#filter0_f_845_1223)">
<path d="M26.8025 67.9259C27.4139 67.9259 27.9196 67.4362 27.9453 66.8131C27.971 66.1727 27.4796 65.6337 26.8482 65.6105C25.8025 65.5699 24.694 65.483 23.6655 65.1497C22.9598 64.9208 21.9912 64.46 21.3741 63.5877C20.817 62.8024 20.5742 61.6896 20.6884 60.4551C20.7456 59.8523 20.9141 59.0351 21.4056 58.5714C21.8684 58.1339 21.8941 57.4007 21.4627 56.9341C21.0313 56.4647 20.3085 56.4386 19.8485 56.8762C19.0314 57.647 18.5485 58.7801 18.4142 60.2378C18.2485 62.0316 18.6399 63.7008 19.5171 64.9411C20.2942 66.0394 21.4855 66.874 22.9655 67.355C24.2569 67.7781 25.6083 67.8825 26.7596 67.9288C26.7739 67.9288 26.7911 67.9288 26.8054 67.9288L26.8025 67.9259Z" fill="#966710"/>
<path d="M35.9698 36.1906C36.0321 36.0695 36.098 35.9488 36.1673 35.8286C37.403 33.6884 39.4102 32.5167 41.2185 31.8025C39.7528 35.0155 36.8994 36.9178 36.8994 36.9178C36.8994 36.9178 36.5214 36.6659 35.9698 36.1906Z" fill="#966710"/>
<path d="M35.62 44.6076C37.8667 43.5654 40.2498 43.7389 42.1201 44.099C39.3307 45.9114 36.1982 46.1134 36.1982 46.1134C36.1982 46.1134 35.915 45.541 35.62 44.6076Z" fill="#966710"/>
<path fill-rule="evenodd" clip-rule="evenodd" d="M41.2185 31.8025C41.725 30.6922 42.0658 29.4253 42.0658 28.0263C42.0658 24.6615 39.9294 22.1365 38.4229 20.5591C37.4895 19.5831 36.8994 18.854 36.8994 18.854C36.8994 18.854 36.3065 19.5831 35.3731 20.5591C33.8666 22.1365 31.7302 24.6615 31.7302 28.0263C31.7302 32.0004 34.4816 34.9084 35.9698 36.1906C36.0321 36.0695 36.098 35.9488 36.1673 35.8286C37.403 33.6884 39.4102 32.5167 41.2185 31.8025ZM42.1201 44.099C43.2539 43.3624 44.331 42.3597 45.1181 40.9964C46.8005 38.0824 46.2129 34.8275 45.697 32.7082C45.3766 31.3963 45.2301 30.4698 45.2301 30.4698C45.2301 30.4698 44.352 30.8047 43.0557 31.1832C42.4999 31.346 41.8722 31.5443 41.2185 31.8025C39.7528 35.0155 36.8994 36.9178 36.8994 36.9178C36.8994 36.9178 36.5214 36.6659 35.9698 36.1906C34.3678 39.3008 35.0184 42.7044 35.62 44.6076C37.8667 43.5654 40.2498 43.7389 42.1201 44.099ZM35.497 55.0873C36.9934 55.0784 38.6219 54.7725 40.1602 53.8843C43.0742 52.2019 44.1928 49.0893 44.8056 46.9959C45.1841 45.6996 45.5205 44.824 45.5205 44.824C45.5205 44.824 44.5926 44.675 43.2807 44.3547C42.9237 44.2678 42.5345 44.1788 42.1201 44.099C39.3307 45.9114 36.1982 46.1134 36.1982 46.1134C36.1982 46.1134 35.915 45.541 35.62 44.6076C35.4094 44.7053 35.2001 44.8136 34.9925 44.9335C31.8828 46.7289 30.65 50.0342 30.1708 52.0787C32.4187 52.5522 34.2081 53.915 35.497 55.0873ZM35.497 55.0873C32.4046 55.1057 29.8769 53.8559 29.8769 53.8559C29.8769 53.8559 29.9231 53.1358 30.1708 52.0787C29.6468 51.9684 29.0979 51.9063 28.5245 51.9063C23.0773 51.9063 19.6331 57.0755 19.6331 57.0755C19.6331 57.0755 23.0773 62.2419 28.5245 62.2419C31.8893 62.2419 34.4143 60.1055 35.9917 58.599C36.9677 57.6656 37.6968 57.0755 37.6968 57.0755C37.6968 57.0755 36.9677 56.4826 35.9917 55.5492C35.836 55.4005 35.6711 55.2456 35.497 55.0873Z" fill="#966710"/>
<path d="M30.1708 52.0787C32.4187 52.5522 34.2081 53.915 35.497 55.0873C32.4046 55.1057 29.8769 53.8559 29.8769 53.8559C29.8769 53.8559 29.9231 53.1358 30.1708 52.0787Z" fill="#966710"/>
</g>
<g id="Group 1000001606">
<path id="Vector_2" d="M23.3998 61.92C24.0093 61.92 24.5134 61.4318 24.5391 60.8107C24.5647 60.1722 24.0748 59.6348 23.4453 59.6117C22.4029 59.5713 21.2978 59.4846 20.2724 59.1524C19.5689 58.9241 18.6033 58.4648 17.9881 57.5952C17.4327 56.8122 17.1906 55.7029 17.3045 54.4721C17.3615 53.8712 17.5295 53.0565 18.0194 52.5943C18.4808 52.158 18.5065 51.4271 18.0764 50.962C17.6463 50.494 16.9257 50.468 16.4671 50.9042C15.6525 51.6727 15.1711 52.8023 15.0373 54.2555C14.8721 56.0438 15.2623 57.7078 16.1367 58.9443C16.9114 60.0393 18.0992 60.8713 19.5746 61.3509C20.862 61.7727 22.2092 61.8767 23.357 61.9229C23.3713 61.9229 23.3884 61.9229 23.4026 61.9229L23.3998 61.92Z" fill="#966710"/>
<g id="Vector_3" filter="url(#filter1_f_845_1223)">
<path d="M17.3514 51.468C16.6564 52.1267 16.3688 53.1205 16.2805 54.0826C16.1551 55.4433 16.3859 56.8792 17.172 57.9885C17.8584 58.9564 18.9151 59.6064 20.0345 59.9704C21.1538 60.3344 22.3359 60.4384 23.5122 60.4847" stroke="white" stroke-width="0.964332" stroke-linecap="round" stroke-linejoin="round"/>
</g>
<g id="Vector_4" filter="url(#filter2_f_845_1223)">
<path d="M17.3514 51.468C16.6564 52.1267 16.3688 53.1205 16.2805 54.0826C16.1551 55.4433 16.3859 56.8792 17.172 57.9885C17.8584 58.9564 18.9151 59.6064 20.0345 59.9704C21.1538 60.3344 22.3359 60.4384 23.5122 60.4847" stroke="white" stroke-opacity="0.6" stroke-width="0.964332" stroke-linecap="round" stroke-linejoin="round"/>
</g>
<path id="Vector 1485" d="M17.2377 54.8094C17.2367 54.8228 17.2362 54.8333 17.2362 54.8406C17.2368 54.8302 17.2373 54.8198 17.2377 54.8094C17.257 54.5611 17.4545 53.31 17.8551 52.5087C18.2774 51.6641 16.9913 51.2491 16.3205 51.1172C16.2009 51.2198 15.934 51.6226 15.934 51.7111C16.098 52.2531 17.2858 53.6241 17.2377 54.8094Z" fill="url(#paint0_linear_845_1223)"/>
<g id="Mask group">
<mask id="mask0_845_1223" style="mask-type:alpha" maskUnits="userSpaceOnUse" x="28" y="13" width="11" height="19">
<g id="Vector_5">
<path d="M33.4098 13.8017C33.1417 14.1096 32.7563 14.5401 32.285 15.0329L32.2848 15.0331C30.7882 16.6002 28.7869 18.995 28.7869 22.1441C28.7869 24.7029 30.0016 26.8123 31.2509 28.3029C31.8732 29.0455 32.4963 29.6249 32.9633 30.0181C33.1607 30.1842 33.3296 30.3166 33.4579 30.4135C33.5862 30.3166 33.7549 30.1843 33.9521 30.0182C34.4188 29.625 35.0416 29.0456 35.6636 28.303C36.9121 26.8125 38.1263 24.703 38.1263 22.1441C38.1263 18.995 36.125 16.6002 34.6284 15.0331C34.1569 14.5401 33.7719 14.1093 33.5044 13.8012C33.4883 13.7826 33.4726 13.7645 33.4573 13.7469C33.4419 13.7647 33.4261 13.783 33.4098 13.8017Z" fill="#4B4D53"/>
<path d="M33.4098 13.8017C33.1417 14.1096 32.7563 14.5401 32.285 15.0329L32.2848 15.0331C30.7882 16.6002 28.7869 18.995 28.7869 22.1441C28.7869 24.7029 30.0016 26.8123 31.2509 28.3029C31.8732 29.0455 32.4963 29.6249 32.9633 30.0181C33.1607 30.1842 33.3296 30.3166 33.4579 30.4135C33.5862 30.3166 33.7549 30.1843 33.9521 30.0182C34.4188 29.625 35.0416 29.0456 35.6636 28.303C36.9121 26.8125 38.1263 24.703 38.1263 22.1441C38.1263 18.995 36.125 16.6002 34.6284 15.0331C34.1569 14.5401 33.7719 14.1093 33.5044 13.8012C33.4883 13.7826 33.4726 13.7645 33.4573 13.7469C33.4419 13.7647 33.4261 13.783 33.4098 13.8017Z" fill="url(#paint1_angular_845_1223)"/>
<path d="M33.4098 13.8017C33.1417 14.1096 32.7563 14.5401 32.285 15.0329L32.2848 15.0331C30.7882 16.6002 28.7869 18.995 28.7869 22.1441C28.7869 24.7029 30.0016 26.8123 31.2509 28.3029C31.8732 29.0455 32.4963 29.6249 32.9633 30.0181C33.1607 30.1842 33.3296 30.3166 33.4579 30.4135C33.5862 30.3166 33.7549 30.1843 33.9521 30.0182C34.4188 29.625 35.0416 29.0456 35.6636 28.303C36.9121 26.8125 38.1263 24.703 38.1263 22.1441C38.1263 18.995 36.125 16.6002 34.6284 15.0331C34.1569 14.5401 33.7719 14.1093 33.5044 13.8012C33.4883 13.7826 33.4726 13.7645 33.4573 13.7469C33.4419 13.7647 33.4261 13.783 33.4098 13.8017Z" stroke="#32353E" stroke-width="0.964332"/>
</g>
</mask>
<g mask="url(#mask0_845_1223)">
<g id="Group 1000001600">
<g id="Vector_6">
<path d="M33.4073 13.8017C33.1392 14.1096 32.7538 14.5401 32.2826 15.0329L32.2823 15.0331C30.7857 16.6002 28.7844 18.995 28.7844 22.1441C28.7844 24.7029 29.9992 26.8123 31.2484 28.3029C31.8708 29.0455 32.4939 29.6249 32.9609 30.0181C33.1582 30.1842 33.3271 30.3166 33.4555 30.4135C33.5837 30.3166 33.7525 30.1843 33.9497 30.0182C34.4164 29.625 35.0392 29.0456 35.6612 28.303C36.9097 26.8125 38.1239 24.703 38.1239 22.1441C38.1239 18.995 36.1226 16.6002 34.6259 15.0331C34.1544 14.5401 33.7695 14.1093 33.5019 13.8012C33.4858 13.7826 33.4702 13.7645 33.4549 13.7469C33.4395 13.7647 33.4236 13.783 33.4073 13.8017Z" fill="#D3A210"/>
<path d="M33.4073 13.8017C33.1392 14.1096 32.7538 14.5401 32.2826 15.0329L32.2823 15.0331C30.7857 16.6002 28.7844 18.995 28.7844 22.1441C28.7844 24.7029 29.9992 26.8123 31.2484 28.3029C31.8708 29.0455 32.4939 29.6249 32.9609 30.0181C33.1582 30.1842 33.3271 30.3166 33.4555 30.4135C33.5837 30.3166 33.7525 30.1843 33.9497 30.0182C34.4164 29.625 35.0392 29.0456 35.6612 28.303C36.9097 26.8125 38.1239 24.703 38.1239 22.1441C38.1239 18.995 36.1226 16.6002 34.6259 15.0331C34.1544 14.5401 33.7695 14.1093 33.5019 13.8012C33.4858 13.7826 33.4702 13.7645 33.4549 13.7469C33.4395 13.7647 33.4236 13.783 33.4073 13.8017Z" fill="url(#paint2_angular_845_1223)"/>
<path d="M33.4073 13.8017C33.1392 14.1096 32.7538 14.5401 32.2826 15.0329L32.2823 15.0331C30.7857 16.6002 28.7844 18.995 28.7844 22.1441C28.7844 24.7029 29.9992 26.8123 31.2484 28.3029C31.8708 29.0455 32.4939 29.6249 32.9609 30.0181C33.1582 30.1842 33.3271 30.3166 33.4555 30.4135C33.5837 30.3166 33.7525 30.1843 33.9497 30.0182C34.4164 29.625 35.0392 29.0456 35.6612 28.303C36.9097 26.8125 38.1239 24.703 38.1239 22.1441C38.1239 18.995 36.1226 16.6002 34.6259 15.0331C34.1544 14.5401 33.7695 14.1093 33.5019 13.8012C33.4858 13.7826 33.4702 13.7645 33.4549 13.7469C33.4395 13.7647 33.4236 13.783 33.4073 13.8017Z" stroke="#966710" stroke-width="0.964332"/>
</g>
<g id="Vector_7" filter="url(#filter3_f_845_1223)">
<path d="M28.6042 20.6306C27.4139 26.5149 33.3059 30.6745 33.4561 30.7762C33.405 30.7127 33.4561 28.9854 33.4561 28.9854C31.6362 27.2336 30.5132 26.3352 30.335 22.7433L28.6042 20.6306Z" fill="url(#paint3_linear_845_1223)"/>
</g>
<g id="Vector_8" filter="url(#filter4_f_845_1223)">
<path d="M38.3079 20.6306C39.4983 26.5149 33.6062 30.6745 33.4561 30.7762C33.5071 30.7127 33.4561 28.9854 33.4561 28.9854C35.2759 27.2336 36.3989 26.3352 36.5771 22.7433L38.3079 20.6306Z" fill="url(#paint4_linear_845_1223)"/>
</g>
<g id="Vector 1481" filter="url(#filter5_f_845_1223)">
<path d="M33.5317 30.8591L33.5317 23.6303C33.7322 27.6408 36.13 27.7493 37.3462 26.4867C37.1679 27.2888 34.7572 29.6986 33.5317 30.8591Z" fill="black" fill-opacity="0.6"/>
</g>
<g id="Vector 1483" filter="url(#filter6_f_845_1223)">
<path d="M33.4428 13.2856C30.1688 16.5422 28.6212 19.3728 28.4976 21.819C28.5417 22.6711 28.4976 24.1874 29.3857 25.8593C29.2947 23.8064 30.3746 20.8584 33.4428 18.7219L33.4428 15.0794L33.4428 13.2856Z" fill="url(#paint5_linear_845_1223)" fill-opacity="0.6"/>
</g>
<g id="Vector 1484" filter="url(#filter7_f_845_1223)">
<path d="M33.4571 13.2856C36.7311 16.5422 38.2787 19.3728 38.4023 21.819C38.3582 22.6711 38.4023 24.1874 37.5142 25.8593C37.6052 23.8064 36.5253 20.9078 33.4571 18.7713L33.4571 15.0794L33.4571 13.2856Z" fill="url(#paint6_linear_845_1223)" fill-opacity="0.6"/>
</g>
<g id="Line 95" filter="url(#filter8_f_845_1223)">
<line y1="-0.482166" x2="17.7233" y2="-0.482166" transform="matrix(-1.31134e-07 -1 -1 1.31134e-07 33.5659 31.0083)" stroke="#32353E" stroke-opacity="0.2" stroke-width="0.964332"/>
</g>
<g id="Line 94" filter="url(#filter9_f_845_1223)">
<path d="M33.3413 31.0083L33.3413 13.285" stroke="white" stroke-opacity="0.16" stroke-width="0.964332" stroke-linecap="round"/>
</g>
</g>
</g>
</g>
<g id="Mask group_2">
<mask id="mask1_845_1223" style="mask-type:alpha" maskUnits="userSpaceOnUse" x="31" y="24" width="12" height="17">
<g id="Vector_9">
<path d="M41.3289 25.2507C40.9427 25.3833 40.3936 25.5635 39.7391 25.7546C37.6594 26.3635 34.7287 27.4368 33.1541 30.164C31.8747 32.38 31.872 34.8142 32.2086 36.7297C32.3763 37.684 32.6262 38.4973 32.8341 39.0713C32.9219 39.3139 33.0019 39.513 33.0646 39.6611C33.2242 39.6413 33.4365 39.611 33.6903 39.5658C34.2911 39.4586 35.1201 39.2683 36.0301 38.9362C37.8566 38.2696 39.9629 37.0498 41.2423 34.8338C42.8168 32.1066 42.2811 29.032 41.7685 26.9265C41.6067 26.2638 41.4887 25.6982 41.4111 25.2976C41.4064 25.2735 41.4019 25.25 41.3975 25.2271C41.3752 25.2348 41.3524 25.2427 41.3289 25.2507Z" fill="#4B4D53"/>
<path d="M41.3289 25.2507C40.9427 25.3833 40.3936 25.5635 39.7391 25.7546C37.6594 26.3635 34.7287 27.4368 33.1541 30.164C31.8747 32.38 31.872 34.8142 32.2086 36.7297C32.3763 37.684 32.6262 38.4973 32.8341 39.0713C32.9219 39.3139 33.0019 39.513 33.0646 39.6611C33.2242 39.6413 33.4365 39.611 33.6903 39.5658C34.2911 39.4586 35.1201 39.2683 36.0301 38.9362C37.8566 38.2696 39.9629 37.0498 41.2423 34.8338C42.8168 32.1066 42.2811 29.032 41.7685 26.9265C41.6067 26.2638 41.4887 25.6982 41.4111 25.2976C41.4064 25.2735 41.4019 25.25 41.3975 25.2271C41.3752 25.2348 41.3524 25.2427 41.3289 25.2507Z" fill="url(#paint7_angular_845_1223)"/>
<path d="M41.3289 25.2507C40.9427 25.3833 40.3936 25.5635 39.7391 25.7546C37.6594 26.3635 34.7287 27.4368 33.1541 30.164C31.8747 32.38 31.872 34.8142 32.2086 36.7297C32.3763 37.684 32.6262 38.4973 32.8341 39.0713C32.9219 39.3139 33.0019 39.513 33.0646 39.6611C33.2242 39.6413 33.4365 39.611 33.6903 39.5658C34.2911 39.4586 35.1201 39.2683 36.0301 38.9362C37.8566 38.2696 39.9629 37.0498 41.2423 34.8338C42.8168 32.1066 42.2811 29.032 41.7685 26.9265C41.6067 26.2638 41.4887 25.6982 41.4111 25.2976C41.4064 25.2735 41.4019 25.25 41.3975 25.2271C41.3752 25.2348 41.3524 25.2427 41.3289 25.2507Z" stroke="#32353E" stroke-width="0.964332"/>
</g>
</mask>
<g mask="url(#mask1_845_1223)">
<g id="Group 1000001600_2">
<g id="Vector_10">
<path d="M41.3289 25.2507C40.9427 25.3833 40.3936 25.5635 39.7391 25.7546C37.6594 26.3635 34.7287 27.4368 33.1541 30.164C31.8747 32.38 31.872 34.8142 32.2086 36.7297C32.3763 37.684 32.6262 38.4973 32.8341 39.0713C32.9219 39.3139 33.0019 39.513 33.0646 39.6611C33.2242 39.6413 33.4365 39.611 33.6903 39.5658C34.2911 39.4586 35.1201 39.2683 36.0301 38.9362C37.8566 38.2696 39.9629 37.0498 41.2423 34.8338C42.8168 32.1066 42.2811 29.032 41.7685 26.9265C41.6067 26.2638 41.4887 25.6982 41.4111 25.2976C41.4064 25.2735 41.4019 25.25 41.3975 25.2271C41.3752 25.2348 41.3524 25.2427 41.3289 25.2507Z" fill="#D3A210"/>
<path d="M41.3289 25.2507C40.9427 25.3833 40.3936 25.5635 39.7391 25.7546C37.6594 26.3635 34.7287 27.4368 33.1541 30.164C31.8747 32.38 31.872 34.8142 32.2086 36.7297C32.3763 37.684 32.6262 38.4973 32.8341 39.0713C32.9219 39.3139 33.0019 39.513 33.0646 39.6611C33.2242 39.6413 33.4365 39.611 33.6903 39.5658C34.2911 39.4586 35.1201 39.2683 36.0301 38.9362C37.8566 38.2696 39.9629 37.0498 41.2423 34.8338C42.8168 32.1066 42.2811 29.032 41.7685 26.9265C41.6067 26.2638 41.4887 25.6982 41.4111 25.2976C41.4064 25.2735 41.4019 25.25 41.3975 25.2271C41.3752 25.2348 41.3524 25.2427 41.3289 25.2507Z" fill="url(#paint8_angular_845_1223)"/>
<path d="M41.3289 25.2507C40.9427 25.3833 40.3936 25.5635 39.7391 25.7546C37.6594 26.3635 34.7287 27.4368 33.1541 30.164C31.8747 32.38 31.872 34.8142 32.2086 36.7297C32.3763 37.684 32.6262 38.4973 32.8341 39.0713C32.9219 39.3139 33.0019 39.513 33.0646 39.6611C33.2242 39.6413 33.4365 39.611 33.6903 39.5658C34.2911 39.4586 35.1201 39.2683 36.0301 38.9362C37.8566 38.2696 39.9629 37.0498 41.2423 34.8338C42.8168 32.1066 42.2811 29.032 41.7685 26.9265C41.6067 26.2638 41.4887 25.6982 41.4111 25.2976C41.4064 25.2735 41.4019 25.25 41.3975 25.2271C41.3752 25.2348 41.3524 25.2427 41.3289 25.2507Z" stroke="#966710" stroke-width="0.964332"/>
</g>
<g id="Vector_11" filter="url(#filter10_f_845_1223)">
<path d="M32.8809 39.9739C33.0618 39.9609 38.8939 39.4984 41.4927 34.9971C43.1235 32.1725 42.5666 29.0248 42.0754 26.9757C41.7958 25.8108 41.6556 24.9614 41.6322 24.8272C41.6394 25.1806 41.7233 30.9005 39.6002 34.5777C37.4772 38.2549 33.0191 39.9203 32.8809 39.9739Z" fill="black" fill-opacity="0.7"/>
</g>
<g id="Vector 1481_2" filter="url(#filter11_f_845_1223)">
<path d="M32.9057 40.0847L36.52 33.8244C34.6884 37.3979 36.7107 38.6907 38.3953 38.2053C37.8398 38.8108 34.5472 39.6925 32.9057 40.0847Z" fill="black" fill-opacity="0.6"/>
</g>
<g id="Vector 1482" filter="url(#filter12_f_845_1223)">
<path d="M32.7664 40.1756L36.2022 34.1471C34.0233 37.5201 32.9052 32.5488 32.4832 30.8473C30.7396 35.2061 32.2854 38.5579 32.7664 40.1756Z" fill="black" fill-opacity="0.6"/>
</g>
<g id="Vector 1483_2" filter="url(#filter13_f_845_1223)">
<path d="M41.6157 24.82C37.152 26.0033 34.3965 27.6808 33.0663 29.7375C32.6785 30.4975 31.8821 31.7886 31.8154 33.6806C32.763 31.8572 36.4187 27.685 40.1442 27.3689L40.7189 26.3735L41.6157 24.82Z" fill="url(#paint9_linear_845_1223)"/>
</g>
<g id="Line 95_2" filter="url(#filter14_f_845_1223)">
<line y1="-0.482166" x2="17.7233" y2="-0.482166" transform="matrix(0.5 -0.866025 -0.866025 -0.5 32.8604 40.2302)" stroke="#D3A210" stroke-opacity="0.5" stroke-width="0.964332"/>
</g>
<g id="Line 94_2" filter="url(#filter15_f_845_1223)">
<path d="M32.6675 40.1191L41.5291 24.7703" stroke="white" stroke-opacity="0.2" stroke-width="0.964332" stroke-linecap="round"/>
</g>
</g>
</g>
</g>
<g id="Mask group_3">
<mask id="mask2_845_1223" style="mask-type:alpha" maskUnits="userSpaceOnUse" x="26" y="37" width="17" height="13">
<g id="Vector_12">
<path d="M41.3373 39.2497C40.9365 39.1715 40.3709 39.053 39.7085 38.8912C37.603 38.3786 34.5283 37.8428 31.801 39.4174C29.5851 40.6968 28.3656 42.8035 27.6994 44.6307C27.3675 45.5409 27.1773 46.3703 27.0702 46.9713C27.025 47.2253 26.9948 47.4377 26.975 47.5973C27.1231 47.66 27.3221 47.7399 27.5646 47.8276C28.1384 48.0352 28.9516 48.2849 29.9056 48.4522C31.8208 48.7882 34.2547 48.785 36.4708 47.5056C39.198 45.931 40.2713 43.0004 40.8801 40.9208C41.0713 40.2659 41.2519 39.7171 41.385 39.3314C41.393 39.3082 41.4008 39.2855 41.4085 39.2635C41.3854 39.2591 41.3616 39.2544 41.3373 39.2497Z" fill="#4B4D53"/>
<path d="M41.3373 39.2497C40.9365 39.1715 40.3709 39.053 39.7085 38.8912C37.603 38.3786 34.5283 37.8428 31.801 39.4174C29.5851 40.6968 28.3656 42.8035 27.6994 44.6307C27.3675 45.5409 27.1773 46.3703 27.0702 46.9713C27.025 47.2253 26.9948 47.4377 26.975 47.5973C27.1231 47.66 27.3221 47.7399 27.5646 47.8276C28.1384 48.0352 28.9516 48.2849 29.9056 48.4522C31.8208 48.7882 34.2547 48.785 36.4708 47.5056C39.198 45.931 40.2713 43.0004 40.8801 40.9208C41.0713 40.2659 41.2519 39.7171 41.385 39.3314C41.393 39.3082 41.4008 39.2855 41.4085 39.2635C41.3854 39.2591 41.3616 39.2544 41.3373 39.2497Z" fill="url(#paint10_angular_845_1223)"/>
<path d="M41.3373 39.2497C40.9365 39.1715 40.3709 39.053 39.7085 38.8912C37.603 38.3786 34.5283 37.8428 31.801 39.4174C29.5851 40.6968 28.3656 42.8035 27.6994 44.6307C27.3675 45.5409 27.1773 46.3703 27.0702 46.9713C27.025 47.2253 26.9948 47.4377 26.975 47.5973C27.1231 47.66 27.3221 47.7399 27.5646 47.8276C28.1384 48.0352 28.9516 48.2849 29.9056 48.4522C31.8208 48.7882 34.2547 48.785 36.4708 47.5056C39.198 45.931 40.2713 43.0004 40.8801 40.9208C41.0713 40.2659 41.2519 39.7171 41.385 39.3314C41.393 39.3082 41.4008 39.2855 41.4085 39.2635C41.3854 39.2591 41.3616 39.2544 41.3373 39.2497Z" stroke="#32353E" stroke-width="0.964332"/>
</g>
</mask>
<g mask="url(#mask2_845_1223)">
<g id="Group 1000001600_3">
<g id="Vector_13">
<path d="M41.3373 39.2504C40.9365 39.1722 40.3709 39.0537 39.7085 38.8919C37.603 38.3794 34.5283 37.8435 31.801 39.4181C29.5851 40.6975 28.3656 42.8042 27.6994 44.6314C27.3675 45.5417 27.1773 46.371 27.0702 46.972C27.025 47.226 26.9948 47.4384 26.975 47.5981C27.1231 47.6607 27.3221 47.7406 27.5646 47.8284C28.1384 48.036 28.9516 48.2856 29.9056 48.453C31.8208 48.789 34.2547 48.7857 36.4708 47.5063C39.198 45.9317 40.2713 43.0012 40.8801 40.9215C41.0713 40.2666 41.2519 39.7179 41.385 39.3321C41.393 39.3089 41.4008 39.2863 41.4085 39.2642C41.3854 39.2598 41.3616 39.2552 41.3373 39.2504Z" fill="#D3A210"/>
<path d="M41.3373 39.2504C40.9365 39.1722 40.3709 39.0537 39.7085 38.8919C37.603 38.3794 34.5283 37.8435 31.801 39.4181C29.5851 40.6975 28.3656 42.8042 27.6994 44.6314C27.3675 45.5417 27.1773 46.371 27.0702 46.972C27.025 47.226 26.9948 47.4384 26.975 47.5981C27.1231 47.6607 27.3221 47.7406 27.5646 47.8284C28.1384 48.036 28.9516 48.2856 29.9056 48.453C31.8208 48.789 34.2547 48.7857 36.4708 47.5063C39.198 45.9317 40.2713 43.0012 40.8801 40.9215C41.0713 40.2666 41.2519 39.7179 41.385 39.3321C41.393 39.3089 41.4008 39.2863 41.4085 39.2642C41.3854 39.2598 41.3616 39.2552 41.3373 39.2504Z" fill="url(#paint11_angular_845_1223)"/>
<path d="M41.3373 39.2504C40.9365 39.1722 40.3709 39.0537 39.7085 38.8919C37.603 38.3794 34.5283 37.8435 31.801 39.4181C29.5851 40.6975 28.3656 42.8042 27.6994 44.6314C27.3675 45.5417 27.1773 46.371 27.0702 46.972C27.025 47.226 26.9948 47.4384 26.975 47.5981C27.1231 47.6607 27.3221 47.7406 27.5646 47.8284C28.1384 48.036 28.9516 48.2856 29.9056 48.453C31.8208 48.789 34.2547 48.7857 36.4708 47.5063C39.198 45.9317 40.2713 43.0012 40.8801 40.9215C41.0713 40.2666 41.2519 39.7179 41.385 39.3321C41.393 39.3089 41.4008 39.2863 41.4085 39.2642C41.3854 39.2598 41.3616 39.2552 41.3373 39.2504Z" stroke="#966710" stroke-width="0.964332"/>
</g>
<g id="Vector_14" filter="url(#filter16_f_845_1223)">
<path d="M26.6611 47.7775C26.8243 47.8567 32.1063 50.3722 36.6075 47.7734C39.4321 46.1426 40.5237 43.1382 41.1229 41.118C41.4632 39.9694 41.7665 39.1637 41.8133 39.0357C41.6428 39.3454 38.8555 44.3409 35.1783 46.464C31.5011 48.587 26.8075 47.8002 26.6611 47.7775Z" fill="black" fill-opacity="0.8"/>
</g>
<g id="Vector 1481_3" filter="url(#filter17_f_845_1223)">
<path d="M26.6294 47.8854L32.8897 44.271C29.5167 46.4499 30.6217 48.5806 32.3232 49.0026C31.5395 49.2492 28.2471 48.3664 26.6294 47.8854Z" fill="black" fill-opacity="0.6"/>
</g>
<g id="Vector 1482_2" filter="url(#filter18_f_845_1223)">
<path d="M26.4601 47.8939L32.1787 44.2076C28.6052 46.0393 27.8542 44.0888 28.3395 42.4043C27.734 42.9597 26.8523 46.2524 26.4601 47.8939Z" fill="black" fill-opacity="0.4"/>
</g>
<g id="Vector 1483_3" filter="url(#filter19_f_845_1223)">
<path d="M41.8003 39.0208C37.343 37.8137 34.1179 37.8887 31.9375 39.0047C31.2217 39.469 29.8864 40.1889 28.8826 41.794C30.615 40.6888 35.867 38.9034 39.2514 40.4923L40.2468 39.9176L41.8003 39.0208Z" fill="url(#paint12_linear_845_1223)"/>
</g>
<g id="Line 95_3" filter="url(#filter20_f_845_1223)">
<line y1="-0.482166" x2="17.7233" y2="-0.482166" transform="matrix(0.866025 -0.5 -0.5 -0.866025 26.5151 47.99)" stroke="#D3A210" stroke-opacity="0.5" stroke-width="0.964332"/>
</g>
<g id="Line 94_3" filter="url(#filter21_f_845_1223)">
<path d="M26.4028 47.7964L41.7517 38.9347" stroke="white" stroke-opacity="0.2" stroke-width="0.964332" stroke-linecap="round"/>
</g>
</g>
</g>
</g>
<g id="Mask group_4">
<mask id="mask3_845_1223" style="mask-type:alpha" maskUnits="userSpaceOnUse" x="16" y="45" width="19" height="12">
<g id="Vector_15">
<path d="M33.4552 51.0562C33.1472 50.7881 32.7166 50.4027 32.2238 49.9314C30.6567 48.4347 28.2619 46.4333 25.1127 46.4333C22.5539 46.4333 20.4445 47.6481 18.9539 48.8974C18.2113 49.5197 17.6319 50.1428 17.2388 50.6098C17.0726 50.8072 16.9402 50.976 16.8433 51.1044C16.9402 51.2327 17.0726 51.4014 17.2387 51.5986C17.6319 52.0653 18.2112 52.6881 18.9538 53.3101C20.4444 54.5586 22.5538 55.7728 25.1127 55.7728C28.2618 55.7728 30.6566 53.7715 32.2237 52.2749C32.7167 51.8033 33.1475 51.4184 33.4556 51.1509C33.4742 51.1348 33.4923 51.1191 33.5099 51.1038C33.4921 51.0884 33.4739 51.0725 33.4552 51.0562Z" fill="#4B4D53"/>
<path d="M33.4552 51.0562C33.1472 50.7881 32.7166 50.4027 32.2238 49.9314C30.6567 48.4347 28.2619 46.4333 25.1127 46.4333C22.5539 46.4333 20.4445 47.6481 18.9539 48.8974C18.2113 49.5197 17.6319 50.1428 17.2388 50.6098C17.0726 50.8072 16.9402 50.976 16.8433 51.1044C16.9402 51.2327 17.0726 51.4014 17.2387 51.5986C17.6319 52.0653 18.2112 52.6881 18.9538 53.3101C20.4444 54.5586 22.5538 55.7728 25.1127 55.7728C28.2618 55.7728 30.6566 53.7715 32.2237 52.2749C32.7167 51.8033 33.1475 51.4184 33.4556 51.1509C33.4742 51.1348 33.4923 51.1191 33.5099 51.1038C33.4921 51.0884 33.4739 51.0725 33.4552 51.0562Z" fill="url(#paint13_angular_845_1223)"/>
<path d="M33.4552 51.0562C33.1472 50.7881 32.7166 50.4027 32.2238 49.9314C30.6567 48.4347 28.2619 46.4333 25.1127 46.4333C22.5539 46.4333 20.4445 47.6481 18.9539 48.8974C18.2113 49.5197 17.6319 50.1428 17.2388 50.6098C17.0726 50.8072 16.9402 50.976 16.8433 51.1044C16.9402 51.2327 17.0726 51.4014 17.2387 51.5986C17.6319 52.0653 18.2112 52.6881 18.9538 53.3101C20.4444 54.5586 22.5538 55.7728 25.1127 55.7728C28.2618 55.7728 30.6566 53.7715 32.2237 52.2749C32.7167 51.8033 33.1475 51.4184 33.4556 51.1509C33.4742 51.1348 33.4923 51.1191 33.5099 51.1038C33.4921 51.0884 33.4739 51.0725 33.4552 51.0562Z" stroke="#32353E" stroke-width="0.964332"/>
</g>
</mask>
<g mask="url(#mask3_845_1223)">
<g id="Group 1000001600_4">
<g id="Vector_16">
<path d="M33.4552 51.0567C33.1472 50.7886 32.7166 50.4032 32.2238 49.9319C30.6567 48.4352 28.2619 46.4338 25.1127 46.4338C22.5539 46.4338 20.4445 47.6486 18.9539 48.8979C18.2113 49.5202 17.6319 50.1433 17.2388 50.6103C17.0726 50.8077 16.9402 50.9765 16.8433 51.1049C16.9402 51.2332 17.0726 51.4019 17.2387 51.5991C17.6319 52.0658 18.2112 52.6886 18.9538 53.3106C20.4444 54.5591 22.5538 55.7733 25.1127 55.7733C28.2618 55.7733 30.6566 53.772 32.2237 52.2753C32.7167 51.8038 33.1475 51.4189 33.4556 51.1514C33.4742 51.1353 33.4923 51.1196 33.5099 51.1043C33.4921 51.0889 33.4739 51.073 33.4552 51.0567Z" fill="#D3A210"/>
<path d="M33.4552 51.0567C33.1472 50.7886 32.7166 50.4032 32.2238 49.9319C30.6567 48.4352 28.2619 46.4338 25.1127 46.4338C22.5539 46.4338 20.4445 47.6486 18.9539 48.8979C18.2113 49.5202 17.6319 50.1433 17.2388 50.6103C17.0726 50.8077 16.9402 50.9765 16.8433 51.1049C16.9402 51.2332 17.0726 51.4019 17.2387 51.5991C17.6319 52.0658 18.2112 52.6886 18.9538 53.3106C20.4444 54.5591 22.5538 55.7733 25.1127 55.7733C28.2618 55.7733 30.6566 53.772 32.2237 52.2753C32.7167 51.8038 33.1475 51.4189 33.4556 51.1514C33.4742 51.1353 33.4923 51.1196 33.5099 51.1043C33.4921 51.0889 33.4739 51.073 33.4552 51.0567Z" fill="url(#paint14_angular_845_1223)"/>
<path d="M33.4552 51.0567C33.1472 50.7886 32.7166 50.4032 32.2238 49.9319C30.6567 48.4352 28.2619 46.4338 25.1127 46.4338C22.5539 46.4338 20.4445 47.6486 18.9539 48.8979C18.2113 49.5202 17.6319 50.1433 17.2388 50.6103C17.0726 50.8077 16.9402 50.9765 16.8433 51.1049C16.9402 51.2332 17.0726 51.4019 17.2387 51.5991C17.6319 52.0658 18.2112 52.6886 18.9538 53.3106C20.4444 54.5591 22.5538 55.7733 25.1127 55.7733C28.2618 55.7733 30.6566 53.772 32.2237 52.2753C32.7167 51.8038 33.1475 51.4189 33.4556 51.1514C33.4742 51.1353 33.4923 51.1196 33.5099 51.1043C33.4921 51.0889 33.4739 51.073 33.4552 51.0567Z" stroke="#966710" stroke-width="0.964332"/>
</g>
<g id="Vector_17" filter="url(#filter22_f_845_1223)">
<path d="M16.4806 51.103C16.5823 51.2532 19.8989 56.0727 25.0965 56.0727C28.358 56.0727 30.8056 54.0165 32.3346 52.5666C33.2036 51.742 33.8691 51.1959 33.9736 51.1085C33.6711 51.2914 28.7595 54.2241 24.5135 54.2241C20.2674 54.2241 16.5961 51.1959 16.4806 51.103Z" fill="black" fill-opacity="0.7"/>
</g>
<g id="Vector 1481_4" filter="url(#filter23_f_845_1223)">
<path d="M16.3982 51.1792H23.627C19.6165 51.3797 19.5081 53.7774 20.7706 54.9936C19.9685 54.8154 17.5587 52.4046 16.3982 51.1792Z" fill="black" fill-opacity="0.6"/>
</g>
<g id="Vector 1482_3" filter="url(#filter24_f_845_1223)">
<path d="M16.2479 51.103L23.0435 50.7699C19.0329 50.5695 19.3577 48.5048 20.6203 47.2886C19.8182 47.4668 17.4083 49.8776 16.2479 51.103Z" fill="black" fill-opacity="0.2"/>
</g>
<g id="Vector 1483_4" filter="url(#filter25_f_845_1223)">
<path d="M33.9712 51.0903C30.7146 47.8163 27.8841 46.2687 25.4378 46.145C24.5857 46.1892 23.0694 46.145 21.3976 47.0332C23.4505 46.9422 28.8915 48.0221 31.0281 51.0903H32.1774H33.9712Z" fill="url(#paint15_linear_845_1223)"/>
</g>
<g id="Line 95_4" filter="url(#filter26_f_845_1223)">
<line y1="-0.482166" x2="17.7233" y2="-0.482166" transform="matrix(1 -8.74228e-08 -8.74228e-08 -1 16.249 51.2134)" stroke="#D3A210" stroke-opacity="0.5" stroke-width="0.964332"/>
</g>
<g id="Line 94_4" filter="url(#filter27_f_845_1223)">
<path d="M16.249 50.9902L33.9723 50.9902" stroke="white" stroke-opacity="0.2" stroke-width="0.964332" stroke-linecap="round"/>
</g>
</g>
</g>
</g>
</g>
</g>
<defs>
<filter id="filter0_f_845_1223" x="0.0301208" y="0.507172" width="64.5486" height="85.7684" filterUnits="userSpaceOnUse" color-interpolation-filters="sRGB">
<feFlood flood-opacity="0" result="BackgroundImageFix"/>
<feBlend mode="normal" in="SourceGraphic" in2="BackgroundImageFix" result="shape"/>
<feGaussianBlur stdDeviation="9.17342" result="effect1_foregroundBlur_845_1223"/>
</filter>
<filter id="filter1_f_845_1223" x="11.9088" y="47.1285" width="15.9427" height="17.6956" filterUnits="userSpaceOnUse" color-interpolation-filters="sRGB">
<feFlood flood-opacity="0" result="BackgroundImageFix"/>
<feBlend mode="normal" in="SourceGraphic" in2="BackgroundImageFix" result="shape"/>
<feGaussianBlur stdDeviation="1.92866" result="effect1_foregroundBlur_845_1223"/>
</filter>
<filter id="filter2_f_845_1223" x="11.9088" y="47.1285" width="15.9427" height="17.6956" filterUnits="userSpaceOnUse" color-interpolation-filters="sRGB">
<feFlood flood-opacity="0" result="BackgroundImageFix"/>
<feBlend mode="normal" in="SourceGraphic" in2="BackgroundImageFix" result="shape"/>
<feGaussianBlur stdDeviation="1.92866" result="effect1_foregroundBlur_845_1223"/>
</filter>
<filter id="filter3_f_845_1223" x="16.8733" y="9.05863" width="28.1547" height="33.2895" filterUnits="userSpaceOnUse" color-interpolation-filters="sRGB">
<feFlood flood-opacity="0" result="BackgroundImageFix"/>
<feBlend mode="normal" in="SourceGraphic" in2="BackgroundImageFix" result="shape"/>
<feGaussianBlur stdDeviation="5.78599" result="effect1_foregroundBlur_845_1223"/>
</filter>
<filter id="filter4_f_845_1223" x="21.8841" y="9.05863" width="28.1547" height="33.2895" filterUnits="userSpaceOnUse" color-interpolation-filters="sRGB">
<feFlood flood-opacity="0" result="BackgroundImageFix"/>
<feBlend mode="normal" in="SourceGraphic" in2="BackgroundImageFix" result="shape"/>
<feGaussianBlur stdDeviation="5.78599" result="effect1_foregroundBlur_845_1223"/>
</filter>
<filter id="filter5_f_845_1223" x="21.9598" y="12.0584" width="26.9584" height="30.3727" filterUnits="userSpaceOnUse" color-interpolation-filters="sRGB">
<feFlood flood-opacity="0" result="BackgroundImageFix"/>
<feBlend mode="normal" in="SourceGraphic" in2="BackgroundImageFix" result="shape"/>
<feGaussianBlur stdDeviation="5.78599" result="effect1_foregroundBlur_845_1223"/>
</filter>
<filter id="filter6_f_845_1223" x="20.7829" y="5.57099" width="20.3746" height="28.003" filterUnits="userSpaceOnUse" color-interpolation-filters="sRGB">
<feFlood flood-opacity="0" result="BackgroundImageFix"/>
<feBlend mode="normal" in="SourceGraphic" in2="BackgroundImageFix" result="shape"/>
<feGaussianBlur stdDeviation="3.85733" result="effect1_foregroundBlur_845_1223"/>
</filter>
<filter id="filter7_f_845_1223" x="25.7424" y="5.57099" width="20.3746" height="28.003" filterUnits="userSpaceOnUse" color-interpolation-filters="sRGB">
<feFlood flood-opacity="0" result="BackgroundImageFix"/>
<feBlend mode="normal" in="SourceGraphic" in2="BackgroundImageFix" result="shape"/>
<feGaussianBlur stdDeviation="3.85733" result="effect1_foregroundBlur_845_1223"/>
</filter>
<filter id="filter8_f_845_1223" x="31.6373" y="11.3562" width="4.82168" height="21.5807" filterUnits="userSpaceOnUse" color-interpolation-filters="sRGB">
<feFlood flood-opacity="0" result="BackgroundImageFix"/>
<feBlend mode="normal" in="SourceGraphic" in2="BackgroundImageFix" result="shape"/>
<feGaussianBlur stdDeviation="0.964332" result="effect1_foregroundBlur_845_1223"/>
</filter>
<filter id="filter9_f_845_1223" x="30.9307" y="10.8741" width="4.82119" height="22.5451" filterUnits="userSpaceOnUse" color-interpolation-filters="sRGB">
<feFlood flood-opacity="0" result="BackgroundImageFix"/>
<feBlend mode="normal" in="SourceGraphic" in2="BackgroundImageFix" result="shape"/>
<feGaussianBlur stdDeviation="0.964332" result="effect1_foregroundBlur_845_1223"/>
</filter>
<filter id="filter10_f_845_1223" x="21.3089" y="13.2552" width="32.8427" height="38.2907" filterUnits="userSpaceOnUse" color-interpolation-filters="sRGB">
<feFlood flood-opacity="0" result="BackgroundImageFix"/>
<feBlend mode="normal" in="SourceGraphic" in2="BackgroundImageFix" result="shape"/>
<feGaussianBlur stdDeviation="5.78599" result="effect1_foregroundBlur_845_1223"/>
</filter>
<filter id="filter11_f_845_1223" x="21.3338" y="22.2525" width="28.6332" height="29.4042" filterUnits="userSpaceOnUse" color-interpolation-filters="sRGB">
<feFlood flood-opacity="0" result="BackgroundImageFix"/>
<feBlend mode="normal" in="SourceGraphic" in2="BackgroundImageFix" result="shape"/>
<feGaussianBlur stdDeviation="5.78599" result="effect1_foregroundBlur_845_1223"/>
</filter>
<filter id="filter12_f_845_1223" x="20.1023" y="19.2754" width="27.6718" height="32.4721" filterUnits="userSpaceOnUse" color-interpolation-filters="sRGB">
<feFlood flood-opacity="0" result="BackgroundImageFix"/>
<feBlend mode="normal" in="SourceGraphic" in2="BackgroundImageFix" result="shape"/>
<feGaussianBlur stdDeviation="5.78599" result="effect1_foregroundBlur_845_1223"/>
</filter>
<filter id="filter13_f_845_1223" x="24.1008" y="17.1054" width="25.2296" height="24.2899" filterUnits="userSpaceOnUse" color-interpolation-filters="sRGB">
<feFlood flood-opacity="0" result="BackgroundImageFix"/>
<feBlend mode="normal" in="SourceGraphic" in2="BackgroundImageFix" result="shape"/>
<feGaussianBlur stdDeviation="3.85733" result="effect1_foregroundBlur_845_1223"/>
</filter>
<filter id="filter14_f_845_1223" x="30.9317" y="22.9527" width="13.5541" height="19.6884" filterUnits="userSpaceOnUse" color-interpolation-filters="sRGB">
<feFlood flood-opacity="0" result="BackgroundImageFix"/>
<feBlend mode="normal" in="SourceGraphic" in2="BackgroundImageFix" result="shape"/>
<feGaussianBlur stdDeviation="0.964332" result="effect1_foregroundBlur_845_1223"/>
</filter>
<filter id="filter15_f_845_1223" x="30.2564" y="22.3594" width="13.6835" height="20.1706" filterUnits="userSpaceOnUse" color-interpolation-filters="sRGB">
<feFlood flood-opacity="0" result="BackgroundImageFix"/>
<feBlend mode="normal" in="SourceGraphic" in2="BackgroundImageFix" result="shape"/>
<feGaussianBlur stdDeviation="0.964332" result="effect1_foregroundBlur_845_1223"/>
</filter>
<filter id="filter16_f_845_1223" x="15.0891" y="27.4637" width="38.2963" height="33.0556" filterUnits="userSpaceOnUse" color-interpolation-filters="sRGB">
<feFlood flood-opacity="0" result="BackgroundImageFix"/>
<feBlend mode="normal" in="SourceGraphic" in2="BackgroundImageFix" result="shape"/>
<feGaussianBlur stdDeviation="5.78599" result="effect1_foregroundBlur_845_1223"/>
</filter>
<filter id="filter17_f_845_1223" x="15.0574" y="32.699" width="29.4042" height="27.9181" filterUnits="userSpaceOnUse" color-interpolation-filters="sRGB">
<feFlood flood-opacity="0" result="BackgroundImageFix"/>
<feBlend mode="normal" in="SourceGraphic" in2="BackgroundImageFix" result="shape"/>
<feGaussianBlur stdDeviation="5.78599" result="effect1_foregroundBlur_845_1223"/>
</filter>
<filter id="filter18_f_845_1223" x="14.888" y="30.8323" width="28.8627" height="28.6335" filterUnits="userSpaceOnUse" color-interpolation-filters="sRGB">
<feFlood flood-opacity="0" result="BackgroundImageFix"/>
<feBlend mode="normal" in="SourceGraphic" in2="BackgroundImageFix" result="shape"/>
<feGaussianBlur stdDeviation="5.78599" result="effect1_foregroundBlur_845_1223"/>
</filter>
<filter id="filter19_f_845_1223" x="21.1682" y="30.4267" width="28.3468" height="19.0819" filterUnits="userSpaceOnUse" color-interpolation-filters="sRGB">
<feFlood flood-opacity="0" result="BackgroundImageFix"/>
<feBlend mode="normal" in="SourceGraphic" in2="BackgroundImageFix" result="shape"/>
<feGaussianBlur stdDeviation="3.85733" result="effect1_foregroundBlur_845_1223"/>
</filter>
<filter id="filter20_f_845_1223" x="24.5865" y="37.1998" width="19.6884" height="13.5541" filterUnits="userSpaceOnUse" color-interpolation-filters="sRGB">
<feFlood flood-opacity="0" result="BackgroundImageFix"/>
<feBlend mode="normal" in="SourceGraphic" in2="BackgroundImageFix" result="shape"/>
<feGaussianBlur stdDeviation="0.964332" result="effect1_foregroundBlur_845_1223"/>
</filter>
<filter id="filter21_f_845_1223" x="23.9917" y="36.5237" width="20.1708" height="13.6835" filterUnits="userSpaceOnUse" color-interpolation-filters="sRGB">
<feFlood flood-opacity="0" result="BackgroundImageFix"/>
<feBlend mode="normal" in="SourceGraphic" in2="BackgroundImageFix" result="shape"/>
<feGaussianBlur stdDeviation="0.964332" result="effect1_foregroundBlur_845_1223"/>
</filter>
<filter id="filter22_f_845_1223" x="4.90848" y="39.531" width="40.6371" height="28.1137" filterUnits="userSpaceOnUse" color-interpolation-filters="sRGB">
<feFlood flood-opacity="0" result="BackgroundImageFix"/>
<feBlend mode="normal" in="SourceGraphic" in2="BackgroundImageFix" result="shape"/>
<feGaussianBlur stdDeviation="5.78599" result="effect1_foregroundBlur_845_1223"/>
</filter>
<filter id="filter23_f_845_1223" x="4.82645" y="39.6072" width="30.3725" height="26.9584" filterUnits="userSpaceOnUse" color-interpolation-filters="sRGB">
<feFlood flood-opacity="0" result="BackgroundImageFix"/>
<feBlend mode="normal" in="SourceGraphic" in2="BackgroundImageFix" result="shape"/>
<feGaussianBlur stdDeviation="5.78599" result="effect1_foregroundBlur_845_1223"/>
</filter>
<filter id="filter24_f_845_1223" x="4.67606" y="35.7166" width="29.9394" height="26.9584" filterUnits="userSpaceOnUse" color-interpolation-filters="sRGB">
<feFlood flood-opacity="0" result="BackgroundImageFix"/>
<feBlend mode="normal" in="SourceGraphic" in2="BackgroundImageFix" result="shape"/>
<feGaussianBlur stdDeviation="5.78599" result="effect1_foregroundBlur_845_1223"/>
</filter>
<filter id="filter25_f_845_1223" x="13.6828" y="38.4304" width="28.003" height="20.3746" filterUnits="userSpaceOnUse" color-interpolation-filters="sRGB">
<feFlood flood-opacity="0" result="BackgroundImageFix"/>
<feBlend mode="normal" in="SourceGraphic" in2="BackgroundImageFix" result="shape"/>
<feGaussianBlur stdDeviation="3.85733" result="effect1_foregroundBlur_845_1223"/>
</filter>
<filter id="filter26_f_845_1223" x="14.3204" y="49.2847" width="21.5805" height="4.82168" filterUnits="userSpaceOnUse" color-interpolation-filters="sRGB">
<feFlood flood-opacity="0" result="BackgroundImageFix"/>
<feBlend mode="normal" in="SourceGraphic" in2="BackgroundImageFix" result="shape"/>
<feGaussianBlur stdDeviation="0.964332" result="effect1_foregroundBlur_845_1223"/>
</filter>
<filter id="filter27_f_845_1223" x="13.8384" y="48.5794" width="22.5448" height="4.82168" filterUnits="userSpaceOnUse" color-interpolation-filters="sRGB">
<feFlood flood-opacity="0" result="BackgroundImageFix"/>
<feBlend mode="normal" in="SourceGraphic" in2="BackgroundImageFix" result="shape"/>
<feGaussianBlur stdDeviation="0.964332" result="effect1_foregroundBlur_845_1223"/>
</filter>
<linearGradient id="paint0_linear_845_1223" x1="17.0628" y1="52.3738" x2="16.5817" y2="52.737" gradientUnits="userSpaceOnUse">
<stop stop-color="#24272D"/>
<stop offset="1" stop-color="#24272D" stop-opacity="0"/>
</linearGradient>
<radialGradient id="paint1_angular_845_1223" cx="0" cy="0" r="1" gradientUnits="userSpaceOnUse" gradientTransform="translate(33.4566 31.0083) rotate(-90) scale(18.0083 31.4737)">
<stop stop-color="#686A74"/>
<stop offset="1" stop-color="#686A74" stop-opacity="0"/>
</radialGradient>
<radialGradient id="paint2_angular_845_1223" cx="0" cy="0" r="1" gradientUnits="userSpaceOnUse" gradientTransform="translate(33.4542 31.0083) rotate(-90) scale(18.0083 31.4737)">
<stop stop-color="#D3A210"/>
<stop offset="1" stop-color="#686A74" stop-opacity="0"/>
</radialGradient>
<linearGradient id="paint3_linear_845_1223" x1="31.7817" y1="28.9112" x2="34.5754" y2="17.1453" gradientUnits="userSpaceOnUse">
<stop stop-color="#161618"/>
<stop offset="1" stop-color="#161618" stop-opacity="0"/>
</linearGradient>
<linearGradient id="paint4_linear_845_1223" x1="35.1304" y1="28.9112" x2="32.3367" y2="17.1453" gradientUnits="userSpaceOnUse">
<stop stop-color="#161618"/>
<stop offset="1" stop-color="#161618" stop-opacity="0"/>
</linearGradient>
<linearGradient id="paint5_linear_845_1223" x1="30.9702" y1="11.3314" x2="34.031" y2="23.0151" gradientUnits="userSpaceOnUse">
<stop stop-color="white"/>
<stop offset="1" stop-color="white" stop-opacity="0"/>
</linearGradient>
<linearGradient id="paint6_linear_845_1223" x1="39.1532" y1="11.1714" x2="35.0985" y2="20.2943" gradientUnits="userSpaceOnUse">
<stop stop-color="white"/>
<stop offset="1" stop-color="white" stop-opacity="0"/>
</linearGradient>
<radialGradient id="paint7_angular_845_1223" cx="0" cy="0" r="1" gradientUnits="userSpaceOnUse" gradientTransform="translate(32.7661 40.1755) rotate(-60) scale(18.0083 31.4737)">
<stop stop-color="#686A74"/>
<stop offset="1" stop-color="#686A74" stop-opacity="0"/>
</radialGradient>
<radialGradient id="paint8_angular_845_1223" cx="0" cy="0" r="1" gradientUnits="userSpaceOnUse" gradientTransform="translate(32.7661 40.1755) rotate(-60) scale(18.0083 31.4737)">
<stop stop-color="#D3A210"/>
<stop offset="1" stop-color="#686A74" stop-opacity="0"/>
</radialGradient>
<linearGradient id="paint9_linear_845_1223" x1="35.134" y1="24.7082" x2="38.1575" y2="30.8097" gradientUnits="userSpaceOnUse">
<stop stop-color="white"/>
<stop offset="1" stop-color="white" stop-opacity="0"/>
</linearGradient>
<radialGradient id="paint10_angular_845_1223" cx="0" cy="0" r="1" gradientUnits="userSpaceOnUse" gradientTransform="translate(26.4593 47.8936) rotate(-30) scale(18.0083 31.4737)">
<stop stop-color="#686A74"/>
<stop offset="1" stop-color="#686A74" stop-opacity="0"/>
</radialGradient>
<radialGradient id="paint11_angular_845_1223" cx="0" cy="0" r="1" gradientUnits="userSpaceOnUse" gradientTransform="translate(26.4593 47.8943) rotate(-30) scale(18.0083 31.4737)">
<stop stop-color="#D3A210"/>
<stop offset="1" stop-color="#686A74" stop-opacity="0"/>
</radialGradient>
<linearGradient id="paint12_linear_845_1223" x1="36.1525" y1="33.2295" x2="35.8105" y2="42.4788" gradientUnits="userSpaceOnUse">
<stop stop-color="white"/>
<stop offset="1" stop-color="white" stop-opacity="0"/>
</linearGradient>
<radialGradient id="paint13_angular_845_1223" cx="0" cy="0" r="1" gradientUnits="userSpaceOnUse" gradientTransform="translate(16.2486 51.1031) scale(18.0083 31.4737)">
<stop stop-color="#686A74"/>
<stop offset="1" stop-color="#686A74" stop-opacity="0"/>
</radialGradient>
<radialGradient id="paint14_angular_845_1223" cx="0" cy="0" r="1" gradientUnits="userSpaceOnUse" gradientTransform="translate(16.2486 51.1036) scale(18.0083 31.4737)">
<stop stop-color="#D3A210"/>
<stop offset="1" stop-color="#686A74" stop-opacity="0"/>
</radialGradient>
<linearGradient id="paint15_linear_845_1223" x1="31.9757" y1="43.251" x2="27.0549" y2="51.0902" gradientUnits="userSpaceOnUse">
<stop stop-color="white"/>
<stop offset="1" stop-color="white" stop-opacity="0"/>
</linearGradient>
</defs>
</svg>
