<svg width="66" height="87" viewBox="0 0 66 87" fill="none" xmlns="http://www.w3.org/2000/svg">
<g opacity="0.16" filter="url(#filter0_f_845_1174)">
<path d="M38.4294 67.9259C37.818 67.9259 37.3123 67.4362 37.2866 66.8131C37.2609 66.1727 37.7523 65.6337 38.3837 65.6105C39.4294 65.5699 40.5379 65.483 41.5665 65.1497C42.2722 64.9208 43.2407 64.46 43.8578 63.5877C44.4149 62.8024 44.6578 61.6896 44.5435 60.4551C44.4864 59.8523 44.3178 59.0351 43.8264 58.5714C43.3635 58.1339 43.3378 57.4007 43.7692 56.9341C44.2007 56.4647 44.9235 56.4386 45.3835 56.8762C46.2006 57.647 46.6834 58.7801 46.8177 60.2378C46.9834 62.0316 46.592 63.7008 45.7149 64.9411C44.9378 66.0394 43.7464 66.874 42.2664 67.355C40.9751 67.7781 39.6237 67.8825 38.4723 67.9288C38.458 67.9288 38.4409 67.9288 38.4266 67.9288L38.4294 67.9259Z" fill="#966710"/>
<path d="M29.2622 36.1906C29.1998 36.0695 29.134 35.9488 29.0646 35.8286C27.8289 33.6884 25.8217 32.5167 24.0135 31.8025C25.4791 35.0155 28.3325 36.9178 28.3325 36.9178C28.3325 36.9178 28.7106 36.6659 29.2622 36.1906Z" fill="#966710"/>
<path d="M29.612 44.6076C27.3652 43.5654 24.9822 43.7389 23.1118 44.099C25.9013 45.9114 29.0337 46.1134 29.0337 46.1134C29.0337 46.1134 29.3169 45.541 29.612 44.6076Z" fill="#966710"/>
<path fill-rule="evenodd" clip-rule="evenodd" d="M24.0135 31.8025C23.507 30.6922 23.1662 29.4253 23.1662 28.0263C23.1662 24.6615 25.3025 22.1365 26.809 20.5591C27.7424 19.5831 28.3325 18.854 28.3325 18.854C28.3325 18.854 28.9255 19.5831 29.8589 20.5591C31.3654 22.1365 33.5017 24.6615 33.5017 28.0263C33.5017 32.0004 30.7503 34.9084 29.2622 36.1906C29.1998 36.0695 29.134 35.9488 29.0646 35.8286C27.8289 33.6884 25.8217 32.5167 24.0135 31.8025ZM23.1118 44.099C21.978 43.3624 20.9009 42.3597 20.1138 40.9964C18.4314 38.0824 19.019 34.8275 19.535 32.7082C19.8553 31.3963 20.0018 30.4698 20.0018 30.4698C20.0018 30.4698 20.8799 30.8047 22.1762 31.1832C22.7321 31.346 23.3598 31.5443 24.0135 31.8025C25.4791 35.0155 28.3325 36.9178 28.3325 36.9178C28.3325 36.9178 28.7106 36.6659 29.2622 36.1906C30.8641 39.3008 30.2135 42.7044 29.612 44.6076C27.3652 43.5654 24.9822 43.7389 23.1118 44.099ZM29.7349 55.0873C28.2386 55.0784 26.61 54.7725 25.0717 53.8843C22.1577 52.2019 21.0392 49.0893 20.4263 46.9959C20.0478 45.6996 19.7114 44.824 19.7114 44.824C19.7114 44.824 20.6393 44.675 21.9512 44.3547C22.3082 44.2678 22.6974 44.1788 23.1118 44.099C25.9013 45.9114 29.0337 46.1134 29.0337 46.1134C29.0337 46.1134 29.3169 45.541 29.612 44.6076C29.8225 44.7053 30.0318 44.8136 30.2395 44.9335C33.3491 46.7289 34.5819 50.0342 35.0611 52.0787C32.8132 52.5522 31.0238 53.915 29.7349 55.0873ZM29.7349 55.0873C32.8273 55.1057 35.3551 53.8559 35.3551 53.8559C35.3551 53.8559 35.3088 53.1358 35.0611 52.0787C35.5851 51.9684 36.1341 51.9063 36.7074 51.9063C42.1546 51.9063 45.5988 57.0755 45.5988 57.0755C45.5988 57.0755 42.1546 62.2419 36.7074 62.2419C33.3426 62.2419 30.8176 60.1055 29.2402 58.599C28.2642 57.6656 27.5351 57.0755 27.5351 57.0755C27.5351 57.0755 28.2642 56.4826 29.2402 55.5492C29.3959 55.4005 29.5609 55.2456 29.7349 55.0873Z" fill="#966710"/>
<path d="M35.0611 52.0787C32.8132 52.5522 31.0238 53.915 29.7349 55.0873C32.8273 55.1057 35.3551 53.8559 35.3551 53.8559C35.3551 53.8559 35.3088 53.1358 35.0611 52.0787Z" fill="#966710"/>
</g>
<path d="M41.8322 61.92C41.2226 61.92 40.7185 61.4318 40.6929 60.8107C40.6672 60.1722 41.1571 59.6348 41.7866 59.6117C42.8291 59.5713 43.9342 59.4846 44.9596 59.1524C45.6631 58.9241 46.6286 58.4648 47.2439 57.5952C47.7993 56.8122 48.0414 55.7029 47.9274 54.4721C47.8705 53.8712 47.7024 53.0565 47.2125 52.5943C46.7511 52.158 46.7255 51.4271 47.1556 50.962C47.5856 50.494 48.3063 50.468 48.7648 50.9042C49.5794 51.6727 50.0608 52.8023 50.1947 54.2555C50.3599 56.0438 49.9696 57.7078 49.0952 58.9443C48.3205 60.0393 47.1328 60.8713 45.6574 61.3509C44.37 61.7727 43.0227 61.8767 41.8749 61.9229C41.8606 61.9229 41.8436 61.9229 41.8293 61.9229L41.8322 61.92Z" fill="#966710"/>
<g filter="url(#filter1_f_845_1174)">
<path d="M47.8805 51.468C48.5755 52.1267 48.8632 53.1205 48.9515 54.0826C49.0768 55.4433 48.8461 56.8792 48.06 57.9885C47.3735 58.9564 46.3168 59.6064 45.1975 59.9704C44.0781 60.3344 42.8961 60.4384 41.7197 60.4847" stroke="white" stroke-width="0.964332" stroke-linecap="round" stroke-linejoin="round"/>
</g>
<g filter="url(#filter2_f_845_1174)">
<path d="M47.8805 51.468C48.5755 52.1267 48.8632 53.1205 48.9515 54.0826C49.0768 55.4433 48.8461 56.8792 48.06 57.9885C47.3735 58.9564 46.3168 59.6064 45.1975 59.9704C44.0781 60.3344 42.8961 60.4384 41.7197 60.4847" stroke="white" stroke-opacity="0.6" stroke-width="0.964332" stroke-linecap="round" stroke-linejoin="round"/>
</g>
<path d="M47.9942 54.8094C47.9952 54.8228 47.9958 54.8333 47.9958 54.8406C47.9951 54.8302 47.9946 54.8198 47.9942 54.8094C47.975 54.5611 47.7774 53.31 47.3768 52.5087C46.9545 51.6641 48.2406 51.2491 48.9114 51.1172C49.031 51.2198 49.2979 51.6226 49.2979 51.7111C49.1339 52.2531 47.9461 53.6241 47.9942 54.8094Z" fill="url(#paint0_linear_845_1174)"/>
<mask id="mask0_845_1174" style="mask-type:alpha" maskUnits="userSpaceOnUse" x="26" y="13" width="11" height="19">
<path d="M31.8222 13.8017C32.0902 14.1096 32.4757 14.5401 32.9469 15.0329L32.9472 15.0331C34.4438 16.6002 36.4451 18.995 36.4451 22.1441C36.4451 24.7029 35.2303 26.8123 33.9811 28.3029C33.3587 29.0455 32.7356 29.6249 32.2686 30.0181C32.0713 30.1842 31.9024 30.3166 31.774 30.4135C31.6458 30.3166 31.477 30.1843 31.2798 30.0182C30.8131 29.625 30.1903 29.0456 29.5683 28.303C28.3198 26.8125 27.1056 24.703 27.1056 22.1441C27.1056 18.995 29.1069 16.6002 30.6036 15.0331C31.0751 14.5401 31.46 14.1093 31.7276 13.8012C31.7437 13.7826 31.7593 13.7645 31.7746 13.7469C31.79 13.7647 31.8059 13.783 31.8222 13.8017Z" fill="#4B4D53"/>
<path d="M31.8222 13.8017C32.0902 14.1096 32.4757 14.5401 32.9469 15.0329L32.9472 15.0331C34.4438 16.6002 36.4451 18.995 36.4451 22.1441C36.4451 24.7029 35.2303 26.8123 33.9811 28.3029C33.3587 29.0455 32.7356 29.6249 32.2686 30.0181C32.0713 30.1842 31.9024 30.3166 31.774 30.4135C31.6458 30.3166 31.477 30.1843 31.2798 30.0182C30.8131 29.625 30.1903 29.0456 29.5683 28.303C28.3198 26.8125 27.1056 24.703 27.1056 22.1441C27.1056 18.995 29.1069 16.6002 30.6036 15.0331C31.0751 14.5401 31.46 14.1093 31.7276 13.8012C31.7437 13.7826 31.7593 13.7645 31.7746 13.7469C31.79 13.7647 31.8059 13.783 31.8222 13.8017Z" fill="url(#paint1_angular_845_1174)"/>
<path d="M31.8222 13.8017C32.0902 14.1096 32.4757 14.5401 32.9469 15.0329L32.9472 15.0331C34.4438 16.6002 36.4451 18.995 36.4451 22.1441C36.4451 24.7029 35.2303 26.8123 33.9811 28.3029C33.3587 29.0455 32.7356 29.6249 32.2686 30.0181C32.0713 30.1842 31.9024 30.3166 31.774 30.4135C31.6458 30.3166 31.477 30.1843 31.2798 30.0182C30.8131 29.625 30.1903 29.0456 29.5683 28.303C28.3198 26.8125 27.1056 24.703 27.1056 22.1441C27.1056 18.995 29.1069 16.6002 30.6036 15.0331C31.0751 14.5401 31.46 14.1093 31.7276 13.8012C31.7437 13.7826 31.7593 13.7645 31.7746 13.7469C31.79 13.7647 31.8059 13.783 31.8222 13.8017Z" stroke="#32353E" stroke-width="0.964332"/>
</mask>
<g mask="url(#mask0_845_1174)">
<path d="M31.8222 13.8017C32.0902 14.1096 32.4757 14.5401 32.9469 15.0329L32.9472 15.0331C34.4438 16.6002 36.4451 18.995 36.4451 22.1441C36.4451 24.7029 35.2303 26.8123 33.9811 28.3029C33.3587 29.0455 32.7356 29.6249 32.2686 30.0181C32.0713 30.1842 31.9024 30.3166 31.774 30.4135C31.6458 30.3166 31.477 30.1843 31.2798 30.0182C30.8131 29.625 30.1903 29.0456 29.5683 28.303C28.3198 26.8125 27.1056 24.703 27.1056 22.1441C27.1056 18.995 29.1069 16.6002 30.6036 15.0331C31.0751 14.5401 31.46 14.1093 31.7276 13.8012C31.7437 13.7826 31.7593 13.7645 31.7746 13.7469C31.79 13.7647 31.8059 13.783 31.8222 13.8017Z" fill="#D3A210"/>
<path d="M31.8222 13.8017C32.0902 14.1096 32.4757 14.5401 32.9469 15.0329L32.9472 15.0331C34.4438 16.6002 36.4451 18.995 36.4451 22.1441C36.4451 24.7029 35.2303 26.8123 33.9811 28.3029C33.3587 29.0455 32.7356 29.6249 32.2686 30.0181C32.0713 30.1842 31.9024 30.3166 31.774 30.4135C31.6458 30.3166 31.477 30.1843 31.2798 30.0182C30.8131 29.625 30.1903 29.0456 29.5683 28.303C28.3198 26.8125 27.1056 24.703 27.1056 22.1441C27.1056 18.995 29.1069 16.6002 30.6036 15.0331C31.0751 14.5401 31.46 14.1093 31.7276 13.8012C31.7437 13.7826 31.7593 13.7645 31.7746 13.7469C31.79 13.7647 31.8059 13.783 31.8222 13.8017Z" fill="url(#paint2_angular_845_1174)"/>
<path d="M31.8222 13.8017C32.0902 14.1096 32.4757 14.5401 32.9469 15.0329L32.9472 15.0331C34.4438 16.6002 36.4451 18.995 36.4451 22.1441C36.4451 24.7029 35.2303 26.8123 33.9811 28.3029C33.3587 29.0455 32.7356 29.6249 32.2686 30.0181C32.0713 30.1842 31.9024 30.3166 31.774 30.4135C31.6458 30.3166 31.477 30.1843 31.2798 30.0182C30.8131 29.625 30.1903 29.0456 29.5683 28.303C28.3198 26.8125 27.1056 24.703 27.1056 22.1441C27.1056 18.995 29.1069 16.6002 30.6036 15.0331C31.0751 14.5401 31.46 14.1093 31.7276 13.8012C31.7437 13.7826 31.7593 13.7645 31.7746 13.7469C31.79 13.7647 31.8059 13.783 31.8222 13.8017Z" stroke="#966710" stroke-width="0.964332"/>
<g filter="url(#filter3_f_845_1174)">
<path d="M36.6277 20.6306C37.8181 26.5149 31.9261 30.6745 31.7759 30.7762C31.827 30.7127 31.7759 28.9854 31.7759 28.9854C33.5957 27.2336 34.7187 26.3352 34.8969 22.7433L36.6277 20.6306Z" fill="url(#paint3_linear_845_1174)"/>
</g>
<g filter="url(#filter4_f_845_1174)">
<path d="M26.924 20.6306C25.7337 26.5149 31.6257 30.6745 31.7759 30.7762C31.7248 30.7127 31.7759 28.9854 31.7759 28.9854C29.956 27.2336 28.8331 26.3352 28.6548 22.7433L26.924 20.6306Z" fill="url(#paint4_linear_845_1174)"/>
</g>
<g filter="url(#filter5_f_845_1174)">
<path d="M31.7002 30.8591L31.7002 23.6303C31.4997 27.6408 29.1019 27.7493 27.8858 26.4867C28.064 27.2888 30.4747 29.6986 31.7002 30.8591Z" fill="black" fill-opacity="0.6"/>
</g>
<g filter="url(#filter6_f_845_1174)">
<path d="M31.7891 13.2856C35.0631 16.5422 36.6107 19.3728 36.7344 21.819C36.6902 22.6711 36.7344 24.1874 35.8462 25.8593C35.9372 23.8064 34.8573 20.8584 31.7891 18.7219L31.7891 15.0794L31.7891 13.2856Z" fill="url(#paint5_linear_845_1174)" fill-opacity="0.6"/>
</g>
<g filter="url(#filter7_f_845_1174)">
<path d="M31.7749 13.2856C28.5008 16.5422 26.9532 19.3728 26.8296 21.819C26.8737 22.6711 26.8296 24.1874 27.7178 25.8593C27.6268 23.8064 28.7066 20.9078 31.7749 18.7713L31.7749 15.0794L31.7749 13.2856Z" fill="url(#paint6_linear_845_1174)" fill-opacity="0.6"/>
</g>
<g filter="url(#filter8_f_845_1174)">
<line x1="31.1838" y1="31.0083" x2="31.1839" y2="13.285" stroke="#32353E" stroke-opacity="0.2" stroke-width="0.964332"/>
</g>
<g filter="url(#filter9_f_845_1174)">
<path d="M31.8882 31.0083L31.8882 13.285" stroke="white" stroke-opacity="0.16" stroke-width="0.964332" stroke-linecap="round"/>
</g>
</g>
<mask id="mask1_845_1174" style="mask-type:alpha" maskUnits="userSpaceOnUse" x="22" y="24" width="12" height="17">
<path d="M23.9031 25.2507C24.2892 25.3833 24.8383 25.5635 25.4929 25.7546C27.5726 26.3635 30.5032 27.4368 32.0778 30.164C33.3572 32.38 33.3599 34.8142 33.0233 36.7297C32.8556 37.684 32.6057 38.4973 32.3979 39.0713C32.31 39.3139 32.23 39.513 32.1673 39.6611C32.0078 39.6413 31.7954 39.611 31.5416 39.5658C30.9408 39.4586 30.1118 39.2683 29.2019 38.9362C27.3753 38.2696 25.2691 37.0498 23.9896 34.8338C22.4151 32.1066 22.9509 29.032 23.4634 26.9265C23.6253 26.2638 23.7432 25.6982 23.8209 25.2976C23.8255 25.2735 23.8301 25.25 23.8345 25.2271C23.8567 25.2348 23.8796 25.2427 23.9031 25.2507Z" fill="#4B4D53"/>
<path d="M23.9031 25.2507C24.2892 25.3833 24.8383 25.5635 25.4929 25.7546C27.5726 26.3635 30.5032 27.4368 32.0778 30.164C33.3572 32.38 33.3599 34.8142 33.0233 36.7297C32.8556 37.684 32.6057 38.4973 32.3979 39.0713C32.31 39.3139 32.23 39.513 32.1673 39.6611C32.0078 39.6413 31.7954 39.611 31.5416 39.5658C30.9408 39.4586 30.1118 39.2683 29.2019 38.9362C27.3753 38.2696 25.2691 37.0498 23.9896 34.8338C22.4151 32.1066 22.9509 29.032 23.4634 26.9265C23.6253 26.2638 23.7432 25.6982 23.8209 25.2976C23.8255 25.2735 23.8301 25.25 23.8345 25.2271C23.8567 25.2348 23.8796 25.2427 23.9031 25.2507Z" fill="url(#paint7_angular_845_1174)"/>
<path d="M23.9031 25.2507C24.2892 25.3833 24.8383 25.5635 25.4929 25.7546C27.5726 26.3635 30.5032 27.4368 32.0778 30.164C33.3572 32.38 33.3599 34.8142 33.0233 36.7297C32.8556 37.684 32.6057 38.4973 32.3979 39.0713C32.31 39.3139 32.23 39.513 32.1673 39.6611C32.0078 39.6413 31.7954 39.611 31.5416 39.5658C30.9408 39.4586 30.1118 39.2683 29.2019 38.9362C27.3753 38.2696 25.2691 37.0498 23.9896 34.8338C22.4151 32.1066 22.9509 29.032 23.4634 26.9265C23.6253 26.2638 23.7432 25.6982 23.8209 25.2976C23.8255 25.2735 23.8301 25.25 23.8345 25.2271C23.8567 25.2348 23.8796 25.2427 23.9031 25.2507Z" stroke="#32353E" stroke-width="0.964332"/>
</mask>
<g mask="url(#mask1_845_1174)">
<path d="M23.9031 25.2507C24.2892 25.3833 24.8383 25.5635 25.4929 25.7546C27.5726 26.3635 30.5032 27.4368 32.0778 30.164C33.3572 32.38 33.3599 34.8142 33.0233 36.7297C32.8556 37.684 32.6057 38.4973 32.3979 39.0713C32.31 39.3139 32.23 39.513 32.1673 39.6611C32.0078 39.6413 31.7954 39.611 31.5416 39.5658C30.9408 39.4586 30.1118 39.2683 29.2019 38.9362C27.3753 38.2696 25.2691 37.0498 23.9896 34.8338C22.4151 32.1066 22.9509 29.032 23.4634 26.9265C23.6253 26.2638 23.7432 25.6982 23.8209 25.2976C23.8255 25.2735 23.8301 25.25 23.8345 25.2271C23.8567 25.2348 23.8796 25.2427 23.9031 25.2507Z" fill="#D3A210"/>
<path d="M23.9031 25.2507C24.2892 25.3833 24.8383 25.5635 25.4929 25.7546C27.5726 26.3635 30.5032 27.4368 32.0778 30.164C33.3572 32.38 33.3599 34.8142 33.0233 36.7297C32.8556 37.684 32.6057 38.4973 32.3979 39.0713C32.31 39.3139 32.23 39.513 32.1673 39.6611C32.0078 39.6413 31.7954 39.611 31.5416 39.5658C30.9408 39.4586 30.1118 39.2683 29.2019 38.9362C27.3753 38.2696 25.2691 37.0498 23.9896 34.8338C22.4151 32.1066 22.9509 29.032 23.4634 26.9265C23.6253 26.2638 23.7432 25.6982 23.8209 25.2976C23.8255 25.2735 23.8301 25.25 23.8345 25.2271C23.8567 25.2348 23.8796 25.2427 23.9031 25.2507Z" fill="url(#paint8_angular_845_1174)"/>
<path d="M23.9031 25.2507C24.2892 25.3833 24.8383 25.5635 25.4929 25.7546C27.5726 26.3635 30.5032 27.4368 32.0778 30.164C33.3572 32.38 33.3599 34.8142 33.0233 36.7297C32.8556 37.684 32.6057 38.4973 32.3979 39.0713C32.31 39.3139 32.23 39.513 32.1673 39.6611C32.0078 39.6413 31.7954 39.611 31.5416 39.5658C30.9408 39.4586 30.1118 39.2683 29.2019 38.9362C27.3753 38.2696 25.2691 37.0498 23.9896 34.8338C22.4151 32.1066 22.9509 29.032 23.4634 26.9265C23.6253 26.2638 23.7432 25.6982 23.8209 25.2976C23.8255 25.2735 23.8301 25.25 23.8345 25.2271C23.8567 25.2348 23.8796 25.2427 23.9031 25.2507Z" stroke="#966710" stroke-width="0.964332"/>
<g filter="url(#filter10_f_845_1174)">
<path d="M32.351 39.9739C32.1701 39.9609 26.3381 39.4984 23.7393 34.9971C22.1085 32.1725 22.6653 29.0248 23.1565 26.9757C23.4362 25.8108 23.5763 24.9614 23.5998 24.8272C23.5926 25.1806 23.5086 30.9005 25.6317 34.5777C27.7547 38.2549 32.2129 39.9203 32.351 39.9739Z" fill="black" fill-opacity="0.7"/>
</g>
<g filter="url(#filter11_f_845_1174)">
<path d="M32.3263 40.0847L28.7119 33.8244C30.5435 37.3979 28.5212 38.6907 26.8367 38.2053C27.3921 38.8108 30.6848 39.6925 32.3263 40.0847Z" fill="black" fill-opacity="0.6"/>
</g>
<g filter="url(#filter12_f_845_1174)">
<path d="M32.4655 40.1756L29.0298 34.1471C31.2086 37.5201 32.3267 32.5488 32.7487 30.8473C34.4923 35.2061 32.9466 38.5579 32.4655 40.1756Z" fill="black" fill-opacity="0.6"/>
</g>
<g filter="url(#filter13_f_845_1174)">
<path d="M23.6162 24.82C28.0799 26.0033 30.8354 27.6808 32.1656 29.7375C32.5534 30.4975 33.3498 31.7886 33.4166 33.6806C32.4689 31.8572 28.8132 27.685 25.0878 27.3689L24.5131 26.3735L23.6162 24.82Z" fill="url(#paint9_linear_845_1174)"/>
</g>
<g filter="url(#filter14_f_845_1174)">
<line x1="31.954" y1="40.4713" x2="23.0924" y2="25.1225" stroke="#D3A210" stroke-opacity="0.5" stroke-width="0.964332"/>
</g>
<g filter="url(#filter15_f_845_1174)">
<path d="M32.5645 40.1191L23.7028 24.7703" stroke="white" stroke-opacity="0.2" stroke-width="0.964332" stroke-linecap="round"/>
</g>
</g>
<mask id="mask2_845_1174" style="mask-type:alpha" maskUnits="userSpaceOnUse" x="23" y="37" width="16" height="13">
<path d="M23.8947 39.2497C24.2954 39.1715 24.861 39.053 25.5234 38.8912C27.6289 38.3786 30.7036 37.8428 33.4309 39.4174C35.6469 40.6968 36.8663 42.8035 37.5326 44.6307C37.8645 45.5409 38.0547 46.3703 38.1617 46.9713C38.2069 47.2253 38.2371 47.4377 38.2569 47.5973C38.1088 47.66 37.9098 47.7399 37.6674 47.8276C37.0935 48.0352 36.2804 48.2849 35.3263 48.4522C33.4111 48.7882 30.9772 48.785 28.7612 47.5056C26.034 45.931 24.9607 43.0004 24.3518 40.9208C24.1606 40.2659 23.98 39.7171 23.8469 39.3314C23.8389 39.3082 23.8311 39.2855 23.8234 39.2635C23.8466 39.2591 23.8703 39.2544 23.8947 39.2497Z" fill="#4B4D53"/>
<path d="M23.8947 39.2497C24.2954 39.1715 24.861 39.053 25.5234 38.8912C27.6289 38.3786 30.7036 37.8428 33.4309 39.4174C35.6469 40.6968 36.8663 42.8035 37.5326 44.6307C37.8645 45.5409 38.0547 46.3703 38.1617 46.9713C38.2069 47.2253 38.2371 47.4377 38.2569 47.5973C38.1088 47.66 37.9098 47.7399 37.6674 47.8276C37.0935 48.0352 36.2804 48.2849 35.3263 48.4522C33.4111 48.7882 30.9772 48.785 28.7612 47.5056C26.034 45.931 24.9607 43.0004 24.3518 40.9208C24.1606 40.2659 23.98 39.7171 23.8469 39.3314C23.8389 39.3082 23.8311 39.2855 23.8234 39.2635C23.8466 39.2591 23.8703 39.2544 23.8947 39.2497Z" fill="url(#paint10_angular_845_1174)"/>
<path d="M23.8947 39.2497C24.2954 39.1715 24.861 39.053 25.5234 38.8912C27.6289 38.3786 30.7036 37.8428 33.4309 39.4174C35.6469 40.6968 36.8663 42.8035 37.5326 44.6307C37.8645 45.5409 38.0547 46.3703 38.1617 46.9713C38.2069 47.2253 38.2371 47.4377 38.2569 47.5973C38.1088 47.66 37.9098 47.7399 37.6674 47.8276C37.0935 48.0352 36.2804 48.2849 35.3263 48.4522C33.4111 48.7882 30.9772 48.785 28.7612 47.5056C26.034 45.931 24.9607 43.0004 24.3518 40.9208C24.1606 40.2659 23.98 39.7171 23.8469 39.3314C23.8389 39.3082 23.8311 39.2855 23.8234 39.2635C23.8466 39.2591 23.8703 39.2544 23.8947 39.2497Z" stroke="#32353E" stroke-width="0.964332"/>
</mask>
<g mask="url(#mask2_845_1174)">
<path d="M23.8922 39.2504C24.2929 39.1722 24.8586 39.0537 25.521 38.8919C27.6265 38.3794 30.7012 37.8435 33.4285 39.4181C35.6444 40.6975 36.8638 42.8042 37.5301 44.6314C37.862 45.5417 38.0522 46.371 38.1592 46.972C38.2045 47.226 38.2347 47.4384 38.2544 47.5981C38.1064 47.6607 37.9074 47.7406 37.6649 47.8284C37.0911 48.036 36.2779 48.2856 35.3238 48.453C33.4087 48.789 30.9748 48.7857 28.7587 47.5063C26.0315 45.9317 24.9582 43.0012 24.3494 40.9215C24.1582 40.2666 23.9776 39.7179 23.8445 39.3321C23.8365 39.3089 23.8286 39.2863 23.821 39.2642C23.8441 39.2598 23.8679 39.2552 23.8922 39.2504Z" fill="#D3A210"/>
<path d="M23.8922 39.2504C24.2929 39.1722 24.8586 39.0537 25.521 38.8919C27.6265 38.3794 30.7012 37.8435 33.4285 39.4181C35.6444 40.6975 36.8638 42.8042 37.5301 44.6314C37.862 45.5417 38.0522 46.371 38.1592 46.972C38.2045 47.226 38.2347 47.4384 38.2544 47.5981C38.1064 47.6607 37.9074 47.7406 37.6649 47.8284C37.0911 48.036 36.2779 48.2856 35.3238 48.453C33.4087 48.789 30.9748 48.7857 28.7587 47.5063C26.0315 45.9317 24.9582 43.0012 24.3494 40.9215C24.1582 40.2666 23.9776 39.7179 23.8445 39.3321C23.8365 39.3089 23.8286 39.2863 23.821 39.2642C23.8441 39.2598 23.8679 39.2552 23.8922 39.2504Z" fill="url(#paint11_angular_845_1174)"/>
<path d="M23.8922 39.2504C24.2929 39.1722 24.8586 39.0537 25.521 38.8919C27.6265 38.3794 30.7012 37.8435 33.4285 39.4181C35.6444 40.6975 36.8638 42.8042 37.5301 44.6314C37.862 45.5417 38.0522 46.371 38.1592 46.972C38.2045 47.226 38.2347 47.4384 38.2544 47.5981C38.1064 47.6607 37.9074 47.7406 37.6649 47.8284C37.0911 48.036 36.2779 48.2856 35.3238 48.453C33.4087 48.789 30.9748 48.7857 28.7587 47.5063C26.0315 45.9317 24.9582 43.0012 24.3494 40.9215C24.1582 40.2666 23.9776 39.7179 23.8445 39.3321C23.8365 39.3089 23.8286 39.2863 23.821 39.2642C23.8441 39.2598 23.8679 39.2552 23.8922 39.2504Z" stroke="#966710" stroke-width="0.964332"/>
<g filter="url(#filter16_f_845_1174)">
<path d="M38.5708 47.7775C38.4076 47.8567 33.1257 50.3722 28.6244 47.7734C25.7998 46.1426 24.7083 43.1382 24.109 41.118C23.7688 39.9694 23.4655 39.1637 23.4187 39.0357C23.5892 39.3454 26.3764 44.3409 30.0536 46.464C33.7308 48.587 38.4244 47.8002 38.5708 47.7775Z" fill="black" fill-opacity="0.8"/>
</g>
<g filter="url(#filter17_f_845_1174)">
<path d="M38.6025 47.8854L32.3423 44.271C35.7152 46.4499 34.6102 48.5806 32.9087 49.0026C33.6925 49.2492 36.9848 48.3664 38.6025 47.8854Z" fill="black" fill-opacity="0.6"/>
</g>
<g filter="url(#filter18_f_845_1174)">
<path d="M38.7718 47.8939L33.0533 44.2076C36.6267 46.0393 37.3778 44.0888 36.8924 42.4043C37.498 42.9597 38.3796 46.2524 38.7718 47.8939Z" fill="black" fill-opacity="0.4"/>
</g>
<g filter="url(#filter19_f_845_1174)">
<path d="M23.4292 39.0208C27.8865 37.8137 31.1116 37.8887 33.292 39.0047C34.0078 39.469 35.3431 40.1889 36.3469 41.794C34.6145 40.6888 29.3624 38.9034 25.9781 40.4923L24.9827 39.9176L23.4292 39.0208Z" fill="url(#paint12_linear_845_1174)"/>
</g>
<g filter="url(#filter20_f_845_1174)">
<line x1="38.4757" y1="48.4073" x2="23.1269" y2="39.5457" stroke="#D3A210" stroke-opacity="0.5" stroke-width="0.964332"/>
</g>
<g filter="url(#filter21_f_845_1174)">
<path d="M38.8267 47.7964L23.4778 38.9347" stroke="white" stroke-opacity="0.2" stroke-width="0.964332" stroke-linecap="round"/>
</g>
</g>
<mask id="mask3_845_1174" style="mask-type:alpha" maskUnits="userSpaceOnUse" x="30" y="45" width="19" height="12">
<path d="M31.7768 51.0562C32.0847 50.7881 32.5153 50.4027 33.0081 49.9314C34.5752 48.4347 36.97 46.4333 40.1192 46.4333C42.678 46.4333 44.7874 47.6481 46.278 48.8974C47.0206 49.5197 47.6 50.1428 47.9932 50.6098C48.1593 50.8072 48.2917 50.976 48.3886 51.1044C48.2917 51.2327 48.1594 51.4014 47.9932 51.5986C47.6001 52.0653 47.0207 52.6881 46.2781 53.3101C44.7876 54.5586 42.6781 55.7728 40.1192 55.7728C36.9701 55.7728 34.5753 53.7715 33.0082 52.2749C32.5152 51.8033 32.0844 51.4184 31.7763 51.1509C31.7577 51.1348 31.7396 51.1191 31.722 51.1038C31.7398 51.0884 31.7581 51.0725 31.7768 51.0562Z" fill="#4B4D53"/>
<path d="M31.7768 51.0562C32.0847 50.7881 32.5153 50.4027 33.0081 49.9314C34.5752 48.4347 36.97 46.4333 40.1192 46.4333C42.678 46.4333 44.7874 47.6481 46.278 48.8974C47.0206 49.5197 47.6 50.1428 47.9932 50.6098C48.1593 50.8072 48.2917 50.976 48.3886 51.1044C48.2917 51.2327 48.1594 51.4014 47.9932 51.5986C47.6001 52.0653 47.0207 52.6881 46.2781 53.3101C44.7876 54.5586 42.6781 55.7728 40.1192 55.7728C36.9701 55.7728 34.5753 53.7715 33.0082 52.2749C32.5152 51.8033 32.0844 51.4184 31.7763 51.1509C31.7577 51.1348 31.7396 51.1191 31.722 51.1038C31.7398 51.0884 31.7581 51.0725 31.7768 51.0562Z" fill="url(#paint13_angular_845_1174)"/>
<path d="M31.7768 51.0562C32.0847 50.7881 32.5153 50.4027 33.0081 49.9314C34.5752 48.4347 36.97 46.4333 40.1192 46.4333C42.678 46.4333 44.7874 47.6481 46.278 48.8974C47.0206 49.5197 47.6 50.1428 47.9932 50.6098C48.1593 50.8072 48.2917 50.976 48.3886 51.1044C48.2917 51.2327 48.1594 51.4014 47.9932 51.5986C47.6001 52.0653 47.0207 52.6881 46.2781 53.3101C44.7876 54.5586 42.6781 55.7728 40.1192 55.7728C36.9701 55.7728 34.5753 53.7715 33.0082 52.2749C32.5152 51.8033 32.0844 51.4184 31.7763 51.1509C31.7577 51.1348 31.7396 51.1191 31.722 51.1038C31.7398 51.0884 31.7581 51.0725 31.7768 51.0562Z" stroke="#32353E" stroke-width="0.964332"/>
</mask>
<g mask="url(#mask3_845_1174)">
<path d="M31.7768 51.0567C32.0847 50.7886 32.5153 50.4032 33.0081 49.9319C34.5752 48.4352 36.97 46.4338 40.1192 46.4338C42.678 46.4338 44.7874 47.6486 46.278 48.8979C47.0206 49.5202 47.6 50.1433 47.9932 50.6103C48.1593 50.8077 48.2917 50.9765 48.3886 51.1049C48.2917 51.2332 48.1594 51.4019 47.9932 51.5991C47.6001 52.0658 47.0207 52.6886 46.2781 53.3106C44.7876 54.5591 42.6781 55.7733 40.1192 55.7733C36.9701 55.7733 34.5753 53.772 33.0082 52.2753C32.5152 51.8038 32.0844 51.4189 31.7763 51.1514C31.7577 51.1353 31.7396 51.1196 31.722 51.1043C31.7398 51.0889 31.7581 51.073 31.7768 51.0567Z" fill="#D3A210"/>
<path d="M31.7768 51.0567C32.0847 50.7886 32.5153 50.4032 33.0081 49.9319C34.5752 48.4352 36.97 46.4338 40.1192 46.4338C42.678 46.4338 44.7874 47.6486 46.278 48.8979C47.0206 49.5202 47.6 50.1433 47.9932 50.6103C48.1593 50.8077 48.2917 50.9765 48.3886 51.1049C48.2917 51.2332 48.1594 51.4019 47.9932 51.5991C47.6001 52.0658 47.0207 52.6886 46.2781 53.3106C44.7876 54.5591 42.6781 55.7733 40.1192 55.7733C36.9701 55.7733 34.5753 53.772 33.0082 52.2753C32.5152 51.8038 32.0844 51.4189 31.7763 51.1514C31.7577 51.1353 31.7396 51.1196 31.722 51.1043C31.7398 51.0889 31.7581 51.073 31.7768 51.0567Z" fill="url(#paint14_angular_845_1174)"/>
<path d="M31.7768 51.0567C32.0847 50.7886 32.5153 50.4032 33.0081 49.9319C34.5752 48.4352 36.97 46.4338 40.1192 46.4338C42.678 46.4338 44.7874 47.6486 46.278 48.8979C47.0206 49.5202 47.6 50.1433 47.9932 50.6103C48.1593 50.8077 48.2917 50.9765 48.3886 51.1049C48.2917 51.2332 48.1594 51.4019 47.9932 51.5991C47.6001 52.0658 47.0207 52.6886 46.2781 53.3106C44.7876 54.5591 42.6781 55.7733 40.1192 55.7733C36.9701 55.7733 34.5753 53.772 33.0082 52.2753C32.5152 51.8038 32.0844 51.4189 31.7763 51.1514C31.7577 51.1353 31.7396 51.1196 31.722 51.1043C31.7398 51.0889 31.7581 51.073 31.7768 51.0567Z" stroke="#966710" stroke-width="0.964332"/>
<g filter="url(#filter22_f_845_1174)">
<path d="M48.7514 51.103C48.6496 51.2532 45.3331 56.0727 40.1355 56.0727C36.8739 56.0727 34.4264 54.0165 32.8973 52.5666C32.0283 51.742 31.3628 51.1959 31.2583 51.1085C31.5608 51.2914 36.4724 54.2241 40.7185 54.2241C44.9646 54.2241 48.6359 51.1959 48.7514 51.103Z" fill="black" fill-opacity="0.7"/>
</g>
<g filter="url(#filter23_f_845_1174)">
<path d="M48.8337 51.1792H41.6049C45.6155 51.3797 45.7239 53.7774 44.4613 54.9936C45.2634 54.8154 47.6733 52.4046 48.8337 51.1792Z" fill="black" fill-opacity="0.6"/>
</g>
<g filter="url(#filter24_f_845_1174)">
<path d="M48.9816 51.103L42.186 50.7699C46.1965 50.5695 45.8718 48.5048 44.6092 47.2886C45.4113 47.4668 47.8211 49.8776 48.9816 51.103Z" fill="black" fill-opacity="0.2"/>
</g>
<g filter="url(#filter25_f_845_1174)">
<path d="M31.2607 51.0903C34.5173 47.8163 37.3479 46.2687 39.7941 46.145C40.6462 46.1892 42.1625 46.145 43.8344 47.0332C41.7815 46.9422 36.3404 48.0221 34.2039 51.0903H33.0545H31.2607Z" fill="url(#paint15_linear_845_1174)"/>
</g>
<g filter="url(#filter26_f_845_1174)">
<line x1="48.9829" y1="51.6955" x2="31.2596" y2="51.6955" stroke="#D3A210" stroke-opacity="0.5" stroke-width="0.964332"/>
</g>
<g filter="url(#filter27_f_845_1174)">
<path d="M48.9829 50.9902L31.2596 50.9902" stroke="white" stroke-opacity="0.2" stroke-width="0.964332" stroke-linecap="round"/>
</g>
</g>
<defs>
<filter id="filter0_f_845_1174" x="0.653168" y="0.507172" width="64.5486" height="85.7684" filterUnits="userSpaceOnUse" color-interpolation-filters="sRGB">
<feFlood flood-opacity="0" result="BackgroundImageFix"/>
<feBlend mode="normal" in="SourceGraphic" in2="BackgroundImageFix" result="shape"/>
<feGaussianBlur stdDeviation="9.17342" result="effect1_foregroundBlur_845_1174"/>
</filter>
<filter id="filter1_f_845_1174" x="37.3805" y="47.1285" width="15.9427" height="17.6956" filterUnits="userSpaceOnUse" color-interpolation-filters="sRGB">
<feFlood flood-opacity="0" result="BackgroundImageFix"/>
<feBlend mode="normal" in="SourceGraphic" in2="BackgroundImageFix" result="shape"/>
<feGaussianBlur stdDeviation="1.92866" result="effect1_foregroundBlur_845_1174"/>
</filter>
<filter id="filter2_f_845_1174" x="37.3805" y="47.1285" width="15.9427" height="17.6956" filterUnits="userSpaceOnUse" color-interpolation-filters="sRGB">
<feFlood flood-opacity="0" result="BackgroundImageFix"/>
<feBlend mode="normal" in="SourceGraphic" in2="BackgroundImageFix" result="shape"/>
<feGaussianBlur stdDeviation="1.92866" result="effect1_foregroundBlur_845_1174"/>
</filter>
<filter id="filter3_f_845_1174" x="20.2039" y="9.05863" width="28.1547" height="33.2895" filterUnits="userSpaceOnUse" color-interpolation-filters="sRGB">
<feFlood flood-opacity="0" result="BackgroundImageFix"/>
<feBlend mode="normal" in="SourceGraphic" in2="BackgroundImageFix" result="shape"/>
<feGaussianBlur stdDeviation="5.78599" result="effect1_foregroundBlur_845_1174"/>
</filter>
<filter id="filter4_f_845_1174" x="15.1932" y="9.05863" width="28.1547" height="33.2895" filterUnits="userSpaceOnUse" color-interpolation-filters="sRGB">
<feFlood flood-opacity="0" result="BackgroundImageFix"/>
<feBlend mode="normal" in="SourceGraphic" in2="BackgroundImageFix" result="shape"/>
<feGaussianBlur stdDeviation="5.78599" result="effect1_foregroundBlur_845_1174"/>
</filter>
<filter id="filter5_f_845_1174" x="16.3138" y="12.0584" width="26.9584" height="30.3727" filterUnits="userSpaceOnUse" color-interpolation-filters="sRGB">
<feFlood flood-opacity="0" result="BackgroundImageFix"/>
<feBlend mode="normal" in="SourceGraphic" in2="BackgroundImageFix" result="shape"/>
<feGaussianBlur stdDeviation="5.78599" result="effect1_foregroundBlur_845_1174"/>
</filter>
<filter id="filter6_f_845_1174" x="24.0744" y="5.57099" width="20.3746" height="28.003" filterUnits="userSpaceOnUse" color-interpolation-filters="sRGB">
<feFlood flood-opacity="0" result="BackgroundImageFix"/>
<feBlend mode="normal" in="SourceGraphic" in2="BackgroundImageFix" result="shape"/>
<feGaussianBlur stdDeviation="3.85733" result="effect1_foregroundBlur_845_1174"/>
</filter>
<filter id="filter7_f_845_1174" x="19.1149" y="5.57099" width="20.3746" height="28.003" filterUnits="userSpaceOnUse" color-interpolation-filters="sRGB">
<feFlood flood-opacity="0" result="BackgroundImageFix"/>
<feBlend mode="normal" in="SourceGraphic" in2="BackgroundImageFix" result="shape"/>
<feGaussianBlur stdDeviation="3.85733" result="effect1_foregroundBlur_845_1174"/>
</filter>
<filter id="filter8_f_845_1174" x="28.773" y="11.3562" width="4.82168" height="21.5807" filterUnits="userSpaceOnUse" color-interpolation-filters="sRGB">
<feFlood flood-opacity="0" result="BackgroundImageFix"/>
<feBlend mode="normal" in="SourceGraphic" in2="BackgroundImageFix" result="shape"/>
<feGaussianBlur stdDeviation="0.964332" result="effect1_foregroundBlur_845_1174"/>
</filter>
<filter id="filter9_f_845_1174" x="29.4776" y="10.8741" width="4.82119" height="22.5451" filterUnits="userSpaceOnUse" color-interpolation-filters="sRGB">
<feFlood flood-opacity="0" result="BackgroundImageFix"/>
<feBlend mode="normal" in="SourceGraphic" in2="BackgroundImageFix" result="shape"/>
<feGaussianBlur stdDeviation="0.964332" result="effect1_foregroundBlur_845_1174"/>
</filter>
<filter id="filter10_f_845_1174" x="11.0804" y="13.2552" width="32.8427" height="38.2907" filterUnits="userSpaceOnUse" color-interpolation-filters="sRGB">
<feFlood flood-opacity="0" result="BackgroundImageFix"/>
<feBlend mode="normal" in="SourceGraphic" in2="BackgroundImageFix" result="shape"/>
<feGaussianBlur stdDeviation="5.78599" result="effect1_foregroundBlur_845_1174"/>
</filter>
<filter id="filter11_f_845_1174" x="15.2649" y="22.2525" width="28.6332" height="29.4042" filterUnits="userSpaceOnUse" color-interpolation-filters="sRGB">
<feFlood flood-opacity="0" result="BackgroundImageFix"/>
<feBlend mode="normal" in="SourceGraphic" in2="BackgroundImageFix" result="shape"/>
<feGaussianBlur stdDeviation="5.78599" result="effect1_foregroundBlur_845_1174"/>
</filter>
<filter id="filter12_f_845_1174" x="17.4578" y="19.2754" width="27.6718" height="32.4721" filterUnits="userSpaceOnUse" color-interpolation-filters="sRGB">
<feFlood flood-opacity="0" result="BackgroundImageFix"/>
<feBlend mode="normal" in="SourceGraphic" in2="BackgroundImageFix" result="shape"/>
<feGaussianBlur stdDeviation="5.78599" result="effect1_foregroundBlur_845_1174"/>
</filter>
<filter id="filter13_f_845_1174" x="15.9016" y="17.1054" width="25.2296" height="24.2899" filterUnits="userSpaceOnUse" color-interpolation-filters="sRGB">
<feFlood flood-opacity="0" result="BackgroundImageFix"/>
<feBlend mode="normal" in="SourceGraphic" in2="BackgroundImageFix" result="shape"/>
<feGaussianBlur stdDeviation="3.85733" result="effect1_foregroundBlur_845_1174"/>
</filter>
<filter id="filter14_f_845_1174" x="20.7461" y="22.9527" width="13.5541" height="19.6884" filterUnits="userSpaceOnUse" color-interpolation-filters="sRGB">
<feFlood flood-opacity="0" result="BackgroundImageFix"/>
<feBlend mode="normal" in="SourceGraphic" in2="BackgroundImageFix" result="shape"/>
<feGaussianBlur stdDeviation="0.964332" result="effect1_foregroundBlur_845_1174"/>
</filter>
<filter id="filter15_f_845_1174" x="21.292" y="22.3594" width="13.6835" height="20.1706" filterUnits="userSpaceOnUse" color-interpolation-filters="sRGB">
<feFlood flood-opacity="0" result="BackgroundImageFix"/>
<feBlend mode="normal" in="SourceGraphic" in2="BackgroundImageFix" result="shape"/>
<feGaussianBlur stdDeviation="0.964332" result="effect1_foregroundBlur_845_1174"/>
</filter>
<filter id="filter16_f_845_1174" x="11.8465" y="27.4637" width="38.2963" height="33.0556" filterUnits="userSpaceOnUse" color-interpolation-filters="sRGB">
<feFlood flood-opacity="0" result="BackgroundImageFix"/>
<feBlend mode="normal" in="SourceGraphic" in2="BackgroundImageFix" result="shape"/>
<feGaussianBlur stdDeviation="5.78599" result="effect1_foregroundBlur_845_1174"/>
</filter>
<filter id="filter17_f_845_1174" x="20.7703" y="32.699" width="29.4042" height="27.9181" filterUnits="userSpaceOnUse" color-interpolation-filters="sRGB">
<feFlood flood-opacity="0" result="BackgroundImageFix"/>
<feBlend mode="normal" in="SourceGraphic" in2="BackgroundImageFix" result="shape"/>
<feGaussianBlur stdDeviation="5.78599" result="effect1_foregroundBlur_845_1174"/>
</filter>
<filter id="filter18_f_845_1174" x="21.4812" y="30.8323" width="28.8627" height="28.6335" filterUnits="userSpaceOnUse" color-interpolation-filters="sRGB">
<feFlood flood-opacity="0" result="BackgroundImageFix"/>
<feBlend mode="normal" in="SourceGraphic" in2="BackgroundImageFix" result="shape"/>
<feGaussianBlur stdDeviation="5.78599" result="effect1_foregroundBlur_845_1174"/>
</filter>
<filter id="filter19_f_845_1174" x="15.7145" y="30.4267" width="28.3468" height="19.0819" filterUnits="userSpaceOnUse" color-interpolation-filters="sRGB">
<feFlood flood-opacity="0" result="BackgroundImageFix"/>
<feBlend mode="normal" in="SourceGraphic" in2="BackgroundImageFix" result="shape"/>
<feGaussianBlur stdDeviation="3.85733" result="effect1_foregroundBlur_845_1174"/>
</filter>
<filter id="filter20_f_845_1174" x="20.9571" y="37.1995" width="19.6884" height="13.5541" filterUnits="userSpaceOnUse" color-interpolation-filters="sRGB">
<feFlood flood-opacity="0" result="BackgroundImageFix"/>
<feBlend mode="normal" in="SourceGraphic" in2="BackgroundImageFix" result="shape"/>
<feGaussianBlur stdDeviation="0.964332" result="effect1_foregroundBlur_845_1174"/>
</filter>
<filter id="filter21_f_845_1174" x="21.0669" y="36.5237" width="20.1708" height="13.6835" filterUnits="userSpaceOnUse" color-interpolation-filters="sRGB">
<feFlood flood-opacity="0" result="BackgroundImageFix"/>
<feBlend mode="normal" in="SourceGraphic" in2="BackgroundImageFix" result="shape"/>
<feGaussianBlur stdDeviation="0.964332" result="effect1_foregroundBlur_845_1174"/>
</filter>
<filter id="filter22_f_845_1174" x="19.6863" y="39.531" width="40.6371" height="28.1137" filterUnits="userSpaceOnUse" color-interpolation-filters="sRGB">
<feFlood flood-opacity="0" result="BackgroundImageFix"/>
<feBlend mode="normal" in="SourceGraphic" in2="BackgroundImageFix" result="shape"/>
<feGaussianBlur stdDeviation="5.78599" result="effect1_foregroundBlur_845_1174"/>
</filter>
<filter id="filter23_f_845_1174" x="30.033" y="39.6072" width="30.3725" height="26.9584" filterUnits="userSpaceOnUse" color-interpolation-filters="sRGB">
<feFlood flood-opacity="0" result="BackgroundImageFix"/>
<feBlend mode="normal" in="SourceGraphic" in2="BackgroundImageFix" result="shape"/>
<feGaussianBlur stdDeviation="5.78599" result="effect1_foregroundBlur_845_1174"/>
</filter>
<filter id="filter24_f_845_1174" x="30.6141" y="35.7166" width="29.9394" height="26.9584" filterUnits="userSpaceOnUse" color-interpolation-filters="sRGB">
<feFlood flood-opacity="0" result="BackgroundImageFix"/>
<feBlend mode="normal" in="SourceGraphic" in2="BackgroundImageFix" result="shape"/>
<feGaussianBlur stdDeviation="5.78599" result="effect1_foregroundBlur_845_1174"/>
</filter>
<filter id="filter25_f_845_1174" x="23.5461" y="38.4304" width="28.003" height="20.3746" filterUnits="userSpaceOnUse" color-interpolation-filters="sRGB">
<feFlood flood-opacity="0" result="BackgroundImageFix"/>
<feBlend mode="normal" in="SourceGraphic" in2="BackgroundImageFix" result="shape"/>
<feGaussianBlur stdDeviation="3.85733" result="effect1_foregroundBlur_845_1174"/>
</filter>
<filter id="filter26_f_845_1174" x="29.3311" y="49.2847" width="21.5805" height="4.82168" filterUnits="userSpaceOnUse" color-interpolation-filters="sRGB">
<feFlood flood-opacity="0" result="BackgroundImageFix"/>
<feBlend mode="normal" in="SourceGraphic" in2="BackgroundImageFix" result="shape"/>
<feGaussianBlur stdDeviation="0.964332" result="effect1_foregroundBlur_845_1174"/>
</filter>
<filter id="filter27_f_845_1174" x="28.8487" y="48.5794" width="22.5448" height="4.82168" filterUnits="userSpaceOnUse" color-interpolation-filters="sRGB">
<feFlood flood-opacity="0" result="BackgroundImageFix"/>
<feBlend mode="normal" in="SourceGraphic" in2="BackgroundImageFix" result="shape"/>
<feGaussianBlur stdDeviation="0.964332" result="effect1_foregroundBlur_845_1174"/>
</filter>
<linearGradient id="paint0_linear_845_1174" x1="48.1692" y1="52.3738" x2="48.6502" y2="52.737" gradientUnits="userSpaceOnUse">
<stop stop-color="#24272D"/>
<stop offset="1" stop-color="#24272D" stop-opacity="0"/>
</linearGradient>
<radialGradient id="paint1_angular_845_1174" cx="0" cy="0" r="1" gradientUnits="userSpaceOnUse" gradientTransform="translate(31.7753 31.0083) rotate(-90) scale(18.0083 31.4737)">
<stop stop-color="#686A74"/>
<stop offset="1" stop-color="#686A74" stop-opacity="0"/>
</radialGradient>
<radialGradient id="paint2_angular_845_1174" cx="0" cy="0" r="1" gradientUnits="userSpaceOnUse" gradientTransform="translate(31.7753 31.0083) rotate(-90) scale(18.0083 31.4737)">
<stop stop-color="#D3A210"/>
<stop offset="1" stop-color="#686A74" stop-opacity="0"/>
</radialGradient>
<linearGradient id="paint3_linear_845_1174" x1="33.4502" y1="28.9112" x2="30.6565" y2="17.1453" gradientUnits="userSpaceOnUse">
<stop stop-color="#161618"/>
<stop offset="1" stop-color="#161618" stop-opacity="0"/>
</linearGradient>
<linearGradient id="paint4_linear_845_1174" x1="30.1016" y1="28.9112" x2="32.8953" y2="17.1453" gradientUnits="userSpaceOnUse">
<stop stop-color="#161618"/>
<stop offset="1" stop-color="#161618" stop-opacity="0"/>
</linearGradient>
<linearGradient id="paint5_linear_845_1174" x1="34.2617" y1="11.3314" x2="31.201" y2="23.0151" gradientUnits="userSpaceOnUse">
<stop stop-color="white"/>
<stop offset="1" stop-color="white" stop-opacity="0"/>
</linearGradient>
<linearGradient id="paint6_linear_845_1174" x1="26.0788" y1="11.1714" x2="30.1334" y2="20.2943" gradientUnits="userSpaceOnUse">
<stop stop-color="white"/>
<stop offset="1" stop-color="white" stop-opacity="0"/>
</linearGradient>
<radialGradient id="paint7_angular_845_1174" cx="0" cy="0" r="1" gradientUnits="userSpaceOnUse" gradientTransform="translate(32.4658 40.1755) rotate(-120) scale(18.0083 31.4737)">
<stop stop-color="#686A74"/>
<stop offset="1" stop-color="#686A74" stop-opacity="0"/>
</radialGradient>
<radialGradient id="paint8_angular_845_1174" cx="0" cy="0" r="1" gradientUnits="userSpaceOnUse" gradientTransform="translate(32.4658 40.1755) rotate(-120) scale(18.0083 31.4737)">
<stop stop-color="#D3A210"/>
<stop offset="1" stop-color="#686A74" stop-opacity="0"/>
</radialGradient>
<linearGradient id="paint9_linear_845_1174" x1="30.098" y1="24.7082" x2="27.0744" y2="30.8097" gradientUnits="userSpaceOnUse">
<stop stop-color="white"/>
<stop offset="1" stop-color="white" stop-opacity="0"/>
</linearGradient>
<radialGradient id="paint10_angular_845_1174" cx="0" cy="0" r="1" gradientUnits="userSpaceOnUse" gradientTransform="translate(38.7726 47.8936) rotate(-150) scale(18.0083 31.4737)">
<stop stop-color="#686A74"/>
<stop offset="1" stop-color="#686A74" stop-opacity="0"/>
</radialGradient>
<radialGradient id="paint11_angular_845_1174" cx="0" cy="0" r="1" gradientUnits="userSpaceOnUse" gradientTransform="translate(38.7702 47.8943) rotate(-150) scale(18.0083 31.4737)">
<stop stop-color="#D3A210"/>
<stop offset="1" stop-color="#686A74" stop-opacity="0"/>
</radialGradient>
<linearGradient id="paint12_linear_845_1174" x1="29.077" y1="33.2295" x2="29.4189" y2="42.4788" gradientUnits="userSpaceOnUse">
<stop stop-color="white"/>
<stop offset="1" stop-color="white" stop-opacity="0"/>
</linearGradient>
<radialGradient id="paint13_angular_845_1174" cx="0" cy="0" r="1" gradientUnits="userSpaceOnUse" gradientTransform="translate(48.9834 51.1031) rotate(-180) scale(18.0083 31.4737)">
<stop stop-color="#686A74"/>
<stop offset="1" stop-color="#686A74" stop-opacity="0"/>
</radialGradient>
<radialGradient id="paint14_angular_845_1174" cx="0" cy="0" r="1" gradientUnits="userSpaceOnUse" gradientTransform="translate(48.9834 51.1036) rotate(-180) scale(18.0083 31.4737)">
<stop stop-color="#D3A210"/>
<stop offset="1" stop-color="#686A74" stop-opacity="0"/>
</radialGradient>
<linearGradient id="paint15_linear_845_1174" x1="33.2563" y1="43.251" x2="38.177" y2="51.0902" gradientUnits="userSpaceOnUse">
<stop stop-color="white"/>
<stop offset="1" stop-color="white" stop-opacity="0"/>
</linearGradient>
</defs>
</svg>
