<svg width="30" height="29" viewBox="0 0 30 29" fill="none" xmlns="http://www.w3.org/2000/svg">
<g id="location">
<path id="Vector" d="M22.6961 20.399L21.2124 21.8175C20.1187 22.855 18.6999 24.189 16.955 25.8196C15.8647 26.8387 14.135 26.8386 13.0449 25.8194L8.68094 21.716C8.13249 21.1954 7.67341 20.7565 7.30361 20.399C3.05309 16.2902 3.05309 9.62844 7.30361 5.51961C11.5541 1.41078 18.4456 1.41078 22.6961 5.51961C26.9466 9.62844 26.9466 16.2902 22.6961 20.399ZM18.1251 13.2913C18.1251 11.6227 16.7259 10.2701 14.9999 10.2701C13.2739 10.2701 11.8746 11.6227 11.8746 13.2913C11.8746 14.9597 13.2739 16.3123 14.9999 16.3123C16.7259 16.3123 18.1251 14.9597 18.1251 13.2913Z" fill="white"/>
</g>
</svg>
